<svg width="52" height="51" viewBox="0 0 52 51" fill="none" xmlns="http://www.w3.org/2000/svg">
<rect x="1.32678" y="1" width="49.6667" height="49" rx="7.5" fill="rgba(239, 176, 52, 1)"/>
<path d="M30.5283 19.915C28.6383 19.915 27.8396 20.8169 26.5233 20.8169C25.1738 20.8169 24.1444 19.9215 22.5066 19.9215C20.9035 19.9215 19.194 20.9003 18.1083 22.5676C16.584 24.9189 16.8427 29.3472 19.3116 33.1197C20.1947 34.4701 21.3741 35.9847 22.921 36.0011H22.9491C24.2935 36.0011 24.6929 35.1208 26.543 35.1104H26.5712C28.3937 35.1104 28.7593 35.9959 30.098 35.9959H30.1262C31.673 35.9795 32.9157 34.3014 33.7988 32.9561C34.4344 31.9886 34.6707 31.5029 35.1582 30.4084C31.5868 29.0528 31.013 23.9898 34.5451 22.0487C33.4669 20.6987 31.9519 19.9169 30.5237 19.9169L30.5283 19.915Z" fill="white"/>
<path d="M30.1125 14.999C28.9875 15.0754 27.675 15.7916 26.9063 16.7268C26.2088 17.5743 25.635 18.8315 25.86 20.0507H25.95C27.1482 20.0507 28.3744 19.3293 29.0907 18.4049C29.7807 17.5251 30.3038 16.2782 30.1125 14.999Z" fill="white"/>
<rect x="1.32678" y="1" width="49.6667" height="49" rx="7.5" stroke="rgba(239, 176, 52, 1)"/>
</svg>
