<svg width="13" height="13" viewBox="0 0 13 13" fill="none" xmlns="http://www.w3.org/2000/svg">
<g clip-path="url(#clip0_602_2834)">
<path d="M12.1111 11.2949C12.1112 11.4648 12.0778 11.6331 12.0128 11.7901C11.9479 11.9471 11.8526 12.0898 11.7325 12.2099C11.6124 12.3301 11.4698 12.4255 11.3128 12.4906C11.1559 12.5556 10.9876 12.5892 10.8177 12.5892H1.40335C1.06026 12.589 0.731297 12.4525 0.488818 12.2098C0.246339 11.9671 0.110202 11.638 0.110352 11.2949V1.8824C0.110352 1.53942 0.24656 1.21049 0.489028 0.967911C0.731497 0.725337 1.06038 0.588986 1.40335 0.588837H10.8177C11.1608 0.588936 11.4897 0.72526 11.7322 0.967834C11.9748 1.21041 12.1111 1.53937 12.1111 1.8824V11.2949Z" fill="url(#paint0_linear_602_2834)"/>
<path d="M6.21994 10.3058H3.75807C3.40182 10.3058 3.14813 10.2262 2.99644 10.067C2.84438 9.9076 2.76807 9.65391 2.76807 9.30553V3.24741C2.76807 2.89191 2.8455 2.63672 3.00188 2.4811C3.1575 2.32547 3.4095 2.24728 3.7575 2.24728H6.36844C6.75319 2.24728 7.08657 2.27166 7.36913 2.31872C7.65094 2.36672 7.90388 2.45822 8.12663 2.59397C8.31838 2.7083 8.48947 2.85416 8.63269 3.02541C8.77894 3.1996 8.89088 3.39216 8.96794 3.60235C9.04425 3.81328 9.08325 4.03603 9.08325 4.2706C9.08325 5.07685 8.67994 5.66691 7.8735 6.04022C8.93213 6.3781 9.46257 7.03378 9.46257 8.00841C9.46257 8.45897 9.34669 8.86472 9.11569 9.22622C8.8922 9.58099 8.56654 9.85978 8.18157 10.0259C7.93632 10.1285 7.65394 10.2008 7.33425 10.2428C7.01607 10.2854 6.64444 10.306 6.21938 10.306M4.39969 3.47316V5.55628H5.895C6.30169 5.55628 6.61594 5.5186 6.83813 5.44116C7.05994 5.36447 7.22869 5.21766 7.34682 5.00147C7.43813 4.84735 7.48388 4.67541 7.48388 4.48435C7.48388 4.07803 7.33932 3.80728 7.05019 3.6736C6.76032 3.5401 6.31894 3.47297 5.72457 3.47297H4.39894L4.39969 3.47316ZM6.09844 6.7276H4.39969V9.08016H6.15319C7.25663 9.08016 7.80825 8.68247 7.80825 7.88728C7.80825 7.48078 7.665 7.18585 7.37925 7.0021C7.09332 6.81928 6.666 6.7276 6.09844 6.7276Z" fill="white"/>
</g>
<defs>
<linearGradient id="paint0_linear_602_2834" x1="6.11073" y1="0.588837" x2="6.11073" y2="12.5892" gradientUnits="userSpaceOnUse">
<stop stop-color="#42930E"/>
<stop offset="0.494792" stop-color="#54AA1E"/>
<stop offset="1" stop-color="#428F10"/>
</linearGradient>
<clipPath id="clip0_602_2834">
<rect width="12" height="12" fill="white" transform="translate(0.111328 0.588654)"/>
</clipPath>
</defs>
</svg>
