<svg width="49" height="49" viewBox="0 0 49 49" fill="none" xmlns="http://www.w3.org/2000/svg">
<circle cx="24.1016" cy="24.0508" r="24" fill="black"/>
<path d="M28.4714 23.3631C29.4585 22.8599 30.0755 21.9735 29.9307 20.4978C29.736 18.4805 27.9944 17.8051 25.7959 17.6134L25.7948 15.1751C25.7953 15.1673 25.7994 15.1605 25.7994 15.1525C25.7994 14.9664 25.6486 14.816 25.4626 14.8157H24.4362C24.347 14.8158 24.2615 14.8513 24.1984 14.9143C24.1354 14.9774 24.1 15.063 24.1 15.1522H24.0922L24.0935 17.5404C23.6456 17.5404 23.188 17.5493 22.7336 17.5588L22.7328 15.1818C22.7336 15.1716 22.7387 15.1627 22.7387 15.1522C22.7387 14.9662 22.5879 14.8157 22.4019 14.8154H21.3755C21.2863 14.8155 21.2008 14.851 21.1377 14.9141C21.0747 14.9772 21.0393 15.0627 21.0393 15.1519L21.0395 15.1527H21.0312L21.0317 17.6139C20.6629 17.6215 20.3009 17.6293 19.9477 17.6293L19.9474 17.6204H17.5985V17.6239C17.5542 17.6239 17.5104 17.6326 17.4696 17.6495C17.4287 17.6664 17.3916 17.6912 17.3603 17.7225C17.329 17.7537 17.3042 17.7909 17.2873 17.8317C17.2704 17.8726 17.2617 17.9164 17.2617 17.9607V19.0983C17.2617 19.2843 17.4125 19.435 17.5985 19.435L17.5998 19.4347V19.4399C17.5998 19.4399 18.8575 19.4154 18.8365 19.4377C19.5262 19.438 19.7509 19.8383 19.8163 20.1836L19.8177 23.3717L19.818 23.3838L19.8193 27.8488C19.7892 28.0658 19.6616 28.4123 19.1797 28.4131C19.2015 28.4322 17.9417 28.4128 17.9417 28.4128L17.9414 28.4144C17.9393 28.4144 17.9377 28.4131 17.9355 28.4131C17.7737 28.4131 17.645 28.5294 17.6125 28.6815L17.5987 28.6806L17.2886 30.0721L17.2959 30.0734C17.2946 30.0858 17.2886 30.0966 17.2886 30.1095C17.2886 30.2883 17.4292 30.4312 17.6052 30.4422L17.6044 30.4473L19.8206 30.4465C20.233 30.4465 20.639 30.4533 21.0374 30.4557L21.0393 32.9489H21.0401C21.0401 33.1347 21.1908 33.2854 21.3768 33.2854H22.4033C22.4925 33.2853 22.578 33.2497 22.641 33.1866C22.7041 33.1235 22.7395 33.0379 22.7395 32.9487H22.74L22.7389 30.4858C23.206 30.4953 23.658 30.4988 24.0994 30.4977L24.1 32.9489H24.1008C24.1011 33.1347 24.2515 33.2854 24.4373 33.2854H25.4637C25.5529 33.2853 25.6384 33.2497 25.7015 33.1866C25.7645 33.1235 25.7999 33.0379 25.7999 32.9487L25.8021 32.9484L25.8015 30.4592C28.6644 30.2936 30.6682 29.5717 30.9159 26.8827C31.1156 24.7182 30.0967 23.7523 28.4714 23.3631ZM22.7739 19.5607C23.7352 19.5602 26.755 19.2533 26.7561 21.2599C26.7564 23.184 23.7363 22.9606 22.775 22.9611L22.7739 19.5607ZM22.7769 28.4265L22.7761 24.677C23.9304 24.677 27.5497 24.3437 27.5505 26.5492C27.5521 28.664 23.9312 28.4246 22.7769 28.4265Z" fill="rgba(239, 176, 52, 1)"/>
</svg>
