<svg width="16" height="17" viewBox="0 0 16 17" fill="none" xmlns="http://www.w3.org/2000/svg">
<path fill-rule="evenodd" clip-rule="evenodd" d="M14 5.89211V4.29461C14 3.86993 13.8313 3.46265 13.531 3.16235C13.2307 2.86206 12.8234 2.69336 12.3988 2.69336H3.60125C3.17657 2.69336 2.76929 2.86206 2.469 3.16235C2.1687 3.46265 2 3.86993 2 4.29461V5.89211H14ZM12.0013 3.89336C12.0806 3.89336 12.1582 3.91689 12.2242 3.96098C12.2902 4.00507 12.3416 4.06774 12.372 4.14106C12.4023 4.21438 12.4103 4.29506 12.3948 4.37289C12.3793 4.45073 12.3411 4.52222 12.285 4.57834C12.2289 4.63445 12.1574 4.67267 12.0795 4.68815C12.0017 4.70363 11.921 4.69569 11.8477 4.66532C11.7744 4.63495 11.7117 4.58352 11.6676 4.51753C11.6235 4.45155 11.6 4.37397 11.6 4.29461C11.5995 4.24178 11.6095 4.18938 11.6295 4.14047C11.6495 4.09156 11.6791 4.04713 11.7164 4.00977C11.7538 3.97241 11.7982 3.94287 11.8471 3.92288C11.896 3.9029 11.9484 3.89286 12.0013 3.89336ZM10.4 3.89336C10.4794 3.89336 10.5569 3.91689 10.6229 3.96098C10.6889 4.00507 10.7403 4.06774 10.7707 4.14106C10.8011 4.21438 10.809 4.29506 10.7935 4.37289C10.7781 4.45073 10.7398 4.52222 10.6837 4.57834C10.6276 4.63445 10.5561 4.67267 10.4783 4.68815C10.4004 4.70363 10.3198 4.69569 10.2465 4.66532C10.1731 4.63495 10.1105 4.58352 10.0664 4.51753C10.0223 4.45155 9.99875 4.37397 9.99875 4.29461C9.99875 4.18819 10.041 4.08613 10.1163 4.01088C10.1915 3.93563 10.2936 3.89336 10.4 3.89336ZM3.99875 3.89336H5.6C5.6557 3.88796 5.71191 3.89426 5.76503 3.91188C5.81815 3.92949 5.86699 3.95801 5.90843 3.99563C5.94986 4.03324 5.98297 4.0791 6.00563 4.13027C6.02829 4.18143 6.04 4.23678 6.04 4.29274C6.04 4.3487 6.02829 4.40404 6.00563 4.4552C5.98297 4.50637 5.94986 4.55223 5.90843 4.58984C5.86699 4.62746 5.81815 4.65598 5.76503 4.6736C5.71191 4.69121 5.6557 4.69751 5.6 4.69211H3.99875C3.89951 4.68248 3.8074 4.63625 3.74039 4.56242C3.67337 4.48858 3.63625 4.39245 3.63625 4.29274C3.63625 4.19302 3.67337 4.09689 3.74039 4.02305C3.8074 3.94922 3.89951 3.90299 3.99875 3.89336Z" fill="#959699"/>
<path d="M6.77039 8.69336H4.80164C4.58004 8.69336 4.40039 8.87301 4.40039 9.09461V12.2934C4.40039 12.515 4.58004 12.6946 4.80164 12.6946H6.77039C6.992 12.6946 7.17164 12.515 7.17164 12.2934V9.09461C7.17164 8.87301 6.992 8.69336 6.77039 8.69336Z" fill="#959699"/>
<path fill-rule="evenodd" clip-rule="evenodd" d="M2 6.69434V13.0918C2 13.5165 2.1687 13.9238 2.469 14.2241C2.76929 14.5244 3.17657 14.6931 3.60125 14.6931H12.3988C12.8234 14.6931 13.2307 14.5244 13.531 14.2241C13.8313 13.9238 14 13.5165 14 13.0918V6.69434H2ZM7.97 12.2931C7.97 12.6113 7.84358 12.9166 7.61853 13.1416C7.39349 13.3667 7.08826 13.4931 6.77 13.4931H4.80125C4.48299 13.4931 4.17777 13.3667 3.95272 13.1416C3.72768 12.9166 3.60125 12.6113 3.60125 12.2931V9.09434C3.60125 8.77608 3.72768 8.47085 3.95272 8.24581C4.17777 8.02076 4.48299 7.89434 4.80125 7.89434H6.77C7.08826 7.89434 7.39349 8.02076 7.61853 8.24581C7.84358 8.47085 7.97 8.77608 7.97 9.09434V12.2931ZM12.0013 12.9231H9.2C9.09359 12.9231 8.99153 12.8808 8.91628 12.8056C8.84103 12.7303 8.79875 12.6283 8.79875 12.5218C8.79875 12.4154 8.84103 12.3134 8.91628 12.2381C8.99153 12.1629 9.09359 12.1206 9.2 12.1206H12.0013C12.1077 12.1206 12.2097 12.1629 12.285 12.2381C12.3602 12.3134 12.4025 12.4154 12.4025 12.5218C12.4025 12.6283 12.3602 12.7303 12.285 12.8056C12.2097 12.8808 12.1077 12.9231 12.0013 12.9231ZM12.0013 11.2918H9.2C9.14431 11.2972 9.08809 11.2909 9.03498 11.2733C8.98186 11.2557 8.93301 11.2272 8.89158 11.1896C8.85014 11.152 8.81703 11.1061 8.79437 11.0549C8.77171 11.0038 8.76001 10.9484 8.76001 10.8925C8.76001 10.8365 8.77171 10.7812 8.79437 10.73C8.81703 10.6788 8.85014 10.633 8.89158 10.5954C8.93301 10.5577 8.98186 10.5292 9.03498 10.5116C9.08809 10.494 9.14431 10.4877 9.2 10.4931H12.0013C12.1005 10.5027 12.1926 10.549 12.2596 10.6228C12.3266 10.6966 12.3638 10.7928 12.3638 10.8925C12.3638 10.9922 12.3266 11.0883 12.2596 11.1621C12.1926 11.236 12.1005 11.2822 12.0013 11.2918ZM12.0013 9.49184H9.2C9.14431 9.49724 9.08809 9.49093 9.03498 9.47332C8.98186 9.45571 8.93301 9.42718 8.89158 9.38957C8.85014 9.35196 8.81703 9.3061 8.79437 9.25493C8.77171 9.20376 8.76001 9.14842 8.76001 9.09246C8.76001 9.0365 8.77171 8.98116 8.79437 8.92999C8.81703 8.87883 8.85014 8.83296 8.89158 8.79535C8.93301 8.75774 8.98186 8.72921 9.03498 8.7116C9.08809 8.69399 9.14431 8.68768 9.2 8.69309H12.0013C12.1005 8.70271 12.1926 8.74895 12.2596 8.82278C12.3266 8.89661 12.3638 8.99275 12.3638 9.09246C12.3638 9.19217 12.3266 9.28831 12.2596 9.36214C12.1926 9.43597 12.1005 9.48221 12.0013 9.49184Z" fill="#959699"/>
</svg>
