<svg width="12" height="13" viewBox="0 0 12 13" fill="none" xmlns="http://www.w3.org/2000/svg">
<path d="M5.34 0.727024C2.34 1.05369 0 3.60036 0 6.69369C0 8.28499 0.632141 9.81111 1.75736 10.9363C2.88258 12.0615 4.4087 12.6937 6 12.6937C9.08667 12.6937 11.6333 10.3604 11.9667 7.36036C12.0267 6.83369 11.4467 6.41369 10.94 6.72702C10.3958 7.0744 9.7682 7.26911 9.12292 7.29079C8.47765 7.31246 7.83842 7.1603 7.27211 6.85023C6.70581 6.54016 6.23326 6.08358 5.90391 5.52827C5.57455 4.97295 5.40052 4.33932 5.4 3.69369C5.4 2.98702 5.60667 2.32036 5.96 1.76702C6.26 1.32036 5.93333 0.680357 5.34 0.727024Z" fill="white"/>
</svg>
