<svg width="14" height="14" viewBox="0 0 14 14" fill="none" xmlns="http://www.w3.org/2000/svg">
<path d="M9.91732 4.66634V2.91634C9.91732 2.76163 9.85586 2.61326 9.74646 2.50386C9.63707 2.39447 9.48869 2.33301 9.33398 2.33301H3.50065C3.19123 2.33301 2.89449 2.45592 2.67569 2.67472C2.4569 2.89351 2.33398 3.19025 2.33398 3.49967M2.33398 3.49967C2.33398 3.80909 2.4569 4.10584 2.67569 4.32463C2.89449 4.54342 3.19123 4.66634 3.50065 4.66634H10.5007C10.6554 4.66634 10.8037 4.7278 10.9131 4.83719C11.0225 4.94659 11.084 5.09496 11.084 5.24967V6.99967M2.33398 3.49967V10.4997C2.33398 10.8091 2.4569 11.1058 2.67569 11.3246C2.89449 11.5434 3.19123 11.6663 3.50065 11.6663H10.5007C10.6554 11.6663 10.8037 11.6049 10.9131 11.4955C11.0225 11.3861 11.084 11.2377 11.084 11.083V9.33301" stroke="#15191F" strokeWidth="1.5" strokeLinecap="round" strokeLinejoin="round"/>
<path d="M11.666 7V9.33333H9.33268C9.02326 9.33333 8.72652 9.21042 8.50772 8.99162C8.28893 8.77283 8.16602 8.47609 8.16602 8.16667C8.16602 7.85725 8.28893 7.5605 8.50772 7.34171C8.72652 7.12292 9.02326 7 9.33268 7H11.666Z" stroke="#15191F" strokeWidth="1.5" strokeLinecap="round" strokeLinejoin="round"/>
</svg>
