<svg width="49" height="49" viewBox="0 0 49 49" fill="none" xmlns="http://www.w3.org/2000/svg">
<circle cx="24.1016" cy="24.0508" r="24" fill="black"/>
<path d="M31.4186 17.166C30.0886 16.546 28.6486 16.096 27.1486 15.836C27.1354 15.8356 27.1223 15.838 27.1102 15.8432C27.0981 15.8484 27.0873 15.8562 27.0786 15.866C26.8986 16.196 26.6886 16.626 26.5486 16.956C24.9576 16.716 23.3396 16.716 21.7486 16.956C21.6086 16.616 21.3986 16.196 21.2086 15.866C21.1986 15.846 21.1686 15.836 21.1386 15.836C19.6386 16.096 18.2086 16.546 16.8686 17.166C16.8586 17.166 16.8486 17.176 16.8386 17.186C14.1186 21.256 13.3686 25.216 13.7386 29.136C13.7386 29.156 13.7486 29.176 13.7686 29.186C15.5686 30.506 17.2986 31.306 19.0086 31.836C19.0386 31.846 19.0686 31.836 19.0786 31.816C19.4786 31.266 19.8386 30.686 20.1486 30.076C20.1686 30.036 20.1486 29.996 20.1086 29.986C19.5386 29.766 18.9986 29.506 18.4686 29.206C18.4286 29.186 18.4286 29.126 18.4586 29.096C18.5686 29.016 18.6786 28.926 18.7886 28.846C18.8086 28.826 18.8386 28.826 18.8586 28.836C22.2986 30.406 26.0086 30.406 29.4086 28.836C29.4286 28.826 29.4586 28.826 29.4786 28.846C29.5886 28.936 29.6986 29.016 29.8086 29.106C29.8486 29.136 29.8486 29.196 29.7986 29.216C29.2786 29.526 28.7286 29.776 28.1586 29.996C28.1186 30.006 28.1086 30.056 28.1186 30.086C28.4386 30.696 28.7986 31.276 29.1886 31.826C29.2186 31.836 29.2486 31.846 29.2786 31.836C30.9986 31.306 32.7286 30.506 34.5286 29.186C34.5486 29.176 34.5586 29.156 34.5586 29.136C34.9986 24.606 33.8286 20.676 31.4586 17.186C31.4486 17.176 31.4386 17.166 31.4186 17.166ZM20.6686 26.746C19.6386 26.746 18.7786 25.796 18.7786 24.626C18.7786 23.456 19.6186 22.506 20.6686 22.506C21.7286 22.506 22.5686 23.466 22.5586 24.626C22.5586 25.796 21.7186 26.746 20.6686 26.746ZM27.6386 26.746C26.6086 26.746 25.7486 25.796 25.7486 24.626C25.7486 23.456 26.5886 22.506 27.6386 22.506C28.6986 22.506 29.5386 23.466 29.5286 24.626C29.5286 25.796 28.6986 26.746 27.6386 26.746Z" fill="rgba(239, 176, 52, 1)"/>
</svg>
