<svg width="14" height="4" viewBox="0 0 14 4" fill="none" xmlns="http://www.w3.org/2000/svg">
<path d="M1.19219 2.82357C1.08173 2.82357 0.992188 2.73402 0.992188 2.62357V1.69023C0.992188 1.57978 1.08173 1.49023 1.19219 1.49023H2.12552C2.23598 1.49023 2.32552 1.57978 2.32552 1.69023V2.62357C2.32552 2.73402 2.23598 2.82357 2.12552 2.82357H1.19219ZM6.52552 2.82357C6.41506 2.82357 6.32552 2.73402 6.32552 2.62357V1.69023C6.32552 1.57978 6.41506 1.49023 6.52552 1.49023H7.45885C7.56931 1.49023 7.65885 1.57978 7.65885 1.69023V2.62357C7.65885 2.73402 7.56931 2.82357 7.45885 2.82357H6.52552ZM11.8589 2.82357C11.7484 2.82357 11.6589 2.73402 11.6589 2.62357V1.69023C11.6589 1.57978 11.7484 1.49023 11.8589 1.49023H12.7922C12.9026 1.49023 12.9922 1.57978 12.9922 1.69023V2.62357C12.9922 2.73402 12.9026 2.82357 12.7922 2.82357H11.8589Z" stroke="#959699" strokeWidth="1.5"/>
</svg>
