<svg width="12" height="12" viewBox="0 0 12 12" fill="none" xmlns="http://www.w3.org/2000/svg">
<path d="M10.7726 3.96935C10.632 3.82874 10.4412 3.74976 10.2423 3.74976C10.0435 3.74976 9.85274 3.82874 9.7121 3.96935L5.9996 7.68185L2.2871 3.96935C2.14565 3.83273 1.95619 3.75713 1.75955 3.75884C1.5629 3.76055 1.37479 3.83943 1.23573 3.97848C1.09668 4.11754 1.0178 4.30565 1.01609 4.5023C1.01438 4.69894 1.08998 4.8884 1.2266 5.02985L5.46935 9.2726C5.60999 9.4132 5.80072 9.49219 5.9996 9.49219C6.19847 9.49219 6.3892 9.4132 6.52985 9.2726L10.7726 5.02985C10.9132 4.8892 10.9922 4.69847 10.9922 4.4996C10.9922 4.30072 10.9132 4.10999 10.7726 3.96935Z" fill="#959699"/>
</svg>
