<svg width="13" height="13" viewBox="0 0 13 13" fill="none" xmlns="http://www.w3.org/2000/svg">
<path d="M2.00004 3.00001H11C11.0912 3.00029 11.1805 3.02542 11.2584 3.0727C11.3363 3.11997 11.3998 3.18759 11.4421 3.26828C11.4845 3.34898 11.504 3.43969 11.4986 3.53065C11.4932 3.62161 11.4631 3.70938 11.4115 3.78451L6.91154 10.2845C6.72504 10.554 6.27604 10.554 6.08904 10.2845L1.58904 3.78451C1.53696 3.70954 1.50641 3.62172 1.50073 3.53061C1.49504 3.4395 1.51443 3.34857 1.5568 3.2677C1.59916 3.18684 1.66288 3.11913 1.74102 3.07193C1.81917 3.02474 1.90875 2.99986 2.00004 3.00001Z" fill="#C7C8CF"/>
</svg>
