<svg width="19" height="19" viewBox="0 0 19 19" fill="none" xmlns="http://www.w3.org/2000/svg">
<path d="M17.8972 9.30875C17.2546 7.62734 16.1342 6.17063 14.674 5.11813L17.3684 2.41813L16.5753 1.625L1.61841 16.5819L2.41154 17.375L5.28029 14.5119C6.56078 15.2582 8.01152 15.663 9.49341 15.6875C11.3269 15.6186 13.0999 15.0139 14.5935 13.9482C16.087 12.8825 17.2356 11.4026 17.8972 9.69125C17.9418 9.56766 17.9418 9.43234 17.8972 9.30875ZM9.49341 13.1562C8.71807 13.1559 7.96316 12.9075 7.33904 12.4475L8.36841 11.4294C8.79524 11.6632 9.28638 11.7524 9.76817 11.6835C10.25 11.6146 10.6964 11.3913 11.0406 11.0471C11.3847 10.703 11.608 10.2565 11.6769 9.77476C11.7458 9.29297 11.6567 8.80182 11.4228 8.375L12.4409 7.35687C12.8372 7.90115 13.0752 8.5444 13.1287 9.21552C13.1822 9.88664 13.0491 10.5595 12.7441 11.1597C12.439 11.7598 11.974 12.264 11.4003 12.6163C10.8266 12.9687 10.1667 13.1556 9.49341 13.1562ZM3.04154 12.7681L5.85404 9.95562C5.83941 9.80422 5.83378 9.65208 5.83716 9.5C5.83865 8.53076 6.22434 7.60164 6.9097 6.91628C7.59506 6.23093 8.52417 5.84524 9.49341 5.84375C9.64196 5.84454 9.79033 5.85393 9.93779 5.87188L12.064 3.75125C11.2365 3.46702 10.3684 3.31885 9.49341 3.3125C7.65995 3.38145 5.88688 3.98612 4.39334 5.0518C2.8998 6.11747 1.75125 7.59743 1.08966 9.30875C1.04498 9.43234 1.04498 9.56766 1.08966 9.69125C1.52168 10.8402 2.18616 11.8877 3.04154 12.7681Z" fill="black"/>
</svg>
