<svg width="26" height="49" viewBox="0 0 26 49" fill="none" xmlns="http://www.w3.org/2000/svg">
<path fill-rule="evenodd" clip-rule="evenodd" d="M21.645 8.46219V6.06594C21.645 5.42892 21.392 4.818 20.9415 4.36756C20.4911 3.91712 19.8802 3.66406 19.2432 3.66406H6.0469C5.40988 3.66406 4.79895 3.91712 4.34851 4.36756C3.89807 4.818 3.64502 5.42892 3.64502 6.06594V8.46219H21.645ZM18.6469 5.46406C18.7659 5.46406 18.8823 5.49936 18.9813 5.5655C19.0803 5.63163 19.1574 5.72563 19.203 5.83561C19.2485 5.94559 19.2604 6.06661 19.2372 6.18336C19.214 6.30011 19.1567 6.40736 19.0725 6.49153C18.9883 6.5757 18.8811 6.63303 18.7643 6.65625C18.6476 6.67947 18.5266 6.66755 18.4166 6.622C18.3066 6.57644 18.2126 6.4993 18.1465 6.40032C18.0803 6.30135 18.045 6.18498 18.045 6.06594C18.0443 5.98669 18.0593 5.90809 18.0893 5.83473C18.1193 5.76136 18.1636 5.69471 18.2196 5.63867C18.2757 5.58264 18.3423 5.53833 18.4157 5.50835C18.4891 5.47837 18.5677 5.46331 18.6469 5.46406ZM16.245 5.46406C16.3641 5.46406 16.4804 5.49936 16.5794 5.5655C16.6784 5.63163 16.7555 5.72563 16.8011 5.83561C16.8466 5.94559 16.8586 6.06661 16.8353 6.18336C16.8121 6.30011 16.7548 6.40736 16.6706 6.49153C16.5864 6.5757 16.4792 6.63303 16.3624 6.65625C16.2457 6.67947 16.1247 6.66755 16.0147 6.622C15.9047 6.57644 15.8107 6.4993 15.7446 6.40032C15.6785 6.30135 15.6432 6.18498 15.6432 6.06594C15.6432 5.90631 15.7066 5.75322 15.8194 5.64035C15.9323 5.52748 16.0854 5.46406 16.245 5.46406ZM6.64315 5.46406H9.04502C9.12857 5.45596 9.21289 5.46542 9.29256 5.49184C9.37224 5.51825 9.44551 5.56105 9.50766 5.61746C9.56982 5.67388 9.61948 5.74267 9.65347 5.81942C9.68746 5.89617 9.70502 5.97919 9.70502 6.06313C9.70502 6.14707 9.68746 6.23008 9.65347 6.30683C9.61948 6.38358 9.56982 6.45237 9.50766 6.50879C9.44551 6.56521 9.37224 6.608 9.29256 6.63442C9.21289 6.66083 9.12857 6.67029 9.04502 6.66219H6.64315C6.49428 6.64775 6.35612 6.57839 6.2556 6.46765C6.15508 6.3569 6.09939 6.21269 6.09939 6.06313C6.09939 5.91356 6.15508 5.76935 6.2556 5.65861C6.35612 5.54786 6.49428 5.47851 6.64315 5.46406Z" fill="#737190"/>
<path d="M10.7999 12.6641H7.84675C7.51434 12.6641 7.24487 12.9335 7.24487 13.2659V18.0641C7.24487 18.3965 7.51434 18.6659 7.84675 18.6659H10.7999C11.1323 18.6659 11.4018 18.3965 11.4018 18.0641V13.2659C11.4018 12.9335 11.1323 12.6641 10.7999 12.6641Z" fill="#737190"/>
<path fill-rule="evenodd" clip-rule="evenodd" d="M3.64502 9.66595V19.2622C3.64502 19.8992 3.89807 20.5102 4.34851 20.9606C4.79895 21.411 5.40988 21.6641 6.0469 21.6641H19.2432C19.8802 21.6641 20.4911 21.411 20.9415 20.9606C21.392 20.5102 21.645 19.8992 21.645 19.2622V9.66595H3.64502ZM12.6 18.0641C12.6 18.5415 12.4104 18.9993 12.0728 19.3369C11.7353 19.6744 11.2774 19.8641 10.8 19.8641H7.8469C7.36951 19.8641 6.91167 19.6744 6.5741 19.3369C6.23654 18.9993 6.0469 18.5415 6.0469 18.0641V13.266C6.0469 12.7886 6.23654 12.3307 6.5741 11.9932C6.91167 11.6556 7.36951 11.466 7.8469 11.466H10.8C11.2774 11.466 11.7353 11.6556 12.0728 11.9932C12.4104 12.3307 12.6 12.7886 12.6 13.266V18.0641ZM18.6469 19.0091H14.445C14.2854 19.0091 14.1323 18.9457 14.0194 18.8328C13.9066 18.7199 13.8431 18.5668 13.8431 18.4072C13.8431 18.2476 13.9066 18.0945 14.0194 17.9816C14.1323 17.8687 14.2854 17.8053 14.445 17.8053H18.6469C18.8065 17.8053 18.9596 17.8687 19.0725 17.9816C19.1854 18.0945 19.2488 18.2476 19.2488 18.4072C19.2488 18.5668 19.1854 18.7199 19.0725 18.8328C18.9596 18.9457 18.8065 19.0091 18.6469 19.0091ZM18.6469 16.5622H14.445C14.3615 16.5703 14.2772 16.5609 14.1975 16.5344C14.1178 16.508 14.0445 16.4652 13.9824 16.4088C13.9202 16.3524 13.8706 16.2836 13.8366 16.2068C13.8026 16.1301 13.785 16.0471 13.785 15.9631C13.785 15.8792 13.8026 15.7962 13.8366 15.7194C13.8706 15.6427 13.9202 15.5739 13.9824 15.5175C14.0445 15.4611 14.1178 15.4183 14.1975 15.3919C14.2772 15.3654 14.3615 15.356 14.445 15.3641H18.6469C18.7958 15.3785 18.9339 15.4479 19.0344 15.5586C19.135 15.6694 19.1907 15.8136 19.1907 15.9631C19.1907 16.1127 19.135 16.2569 19.0344 16.3677C18.9339 16.4784 18.7958 16.5478 18.6469 16.5622ZM18.6469 13.8622H14.445C14.3615 13.8703 14.2772 13.8609 14.1975 13.8344C14.1178 13.808 14.0445 13.7652 13.9824 13.7088C13.9202 13.6524 13.8706 13.5836 13.8366 13.5068C13.8026 13.4301 13.785 13.3471 13.785 13.2631C13.785 13.1792 13.8026 13.0962 13.8366 13.0194C13.8706 12.9427 13.9202 12.8739 13.9824 12.8175C14.0445 12.7611 14.1178 12.7183 14.1975 12.6919C14.2772 12.6654 14.3615 12.656 14.445 12.6641H18.6469C18.7958 12.6785 18.9339 12.7479 19.0344 12.8586C19.135 12.9694 19.1907 13.1136 19.1907 13.2631C19.1907 13.4127 19.135 13.5569 19.0344 13.6677C18.9339 13.7784 18.7958 13.8478 18.6469 13.8622Z" fill="#737190"/>
<path d="M1.17114 43.6641V35.2641H4.42314C5.25514 35.2641 5.90714 35.4481 6.37914 35.8161C6.85114 36.1761 7.08714 36.6681 7.08714 37.2921C7.08714 37.7161 6.96714 38.0881 6.72715 38.4081C6.49514 38.7281 6.19114 38.9681 5.81514 39.1281C6.88714 39.5281 7.42314 40.2161 7.42314 41.1921C7.42314 41.9281 7.13914 42.5241 6.57115 42.9801C6.01114 43.4361 5.31514 43.6641 4.48314 43.6641H1.17114ZM2.46714 38.6481H4.33914C5.33114 38.6481 5.82714 38.2721 5.82714 37.5201C5.82714 36.7761 5.33114 36.4041 4.33914 36.4041H2.46714V38.6481ZM2.46714 42.5121H4.36314C4.92314 42.5121 5.35514 42.3961 5.65914 42.1641C5.97114 41.9321 6.12714 41.5921 6.12714 41.1441C6.12714 40.6961 5.97514 40.3601 5.67114 40.1361C5.36714 39.9041 4.93114 39.7881 4.36314 39.7881H2.46714V42.5121ZM8.66777 43.6641V35.2641H9.91577V43.6641H8.66777ZM12.1031 42.9801C11.4791 42.4121 11.1671 41.6481 11.1671 40.6881C11.1671 39.7281 11.4791 38.9641 12.1031 38.3961C12.7271 37.8281 13.4791 37.5441 14.3591 37.5441C15.2391 37.5441 15.9871 37.8281 16.6031 38.3961C17.2271 38.9641 17.5391 39.7281 17.5391 40.6881C17.5391 41.6481 17.2271 42.4121 16.6031 42.9801C15.9871 43.5481 15.2391 43.8321 14.3591 43.8321C13.4791 43.8321 12.7271 43.5481 12.1031 42.9801ZM15.7151 42.1401C16.0911 41.7641 16.2791 41.2801 16.2791 40.6881C16.2791 40.0961 16.0911 39.6161 15.7151 39.2481C15.3471 38.8721 14.8951 38.6841 14.3591 38.6841C13.8151 38.6841 13.3551 38.8721 12.9791 39.2481C12.6111 39.6161 12.4271 40.0961 12.4271 40.6881C12.4271 41.2801 12.6111 41.7641 12.9791 42.1401C13.3551 42.5081 13.8151 42.6921 14.3591 42.6921C14.8951 42.6921 15.3471 42.5081 15.7151 42.1401ZM18.7088 44.3721C18.7088 44.1401 18.7648 43.9201 18.8768 43.7121L20.0528 44.0721C19.9968 44.2081 19.9688 44.3481 19.9688 44.4921C19.9688 44.7321 20.1008 44.9241 20.3648 45.0681C20.6368 45.2121 21.0008 45.2841 21.4568 45.2841C22.5608 45.2841 23.1128 44.6521 23.1128 43.3881V42.5721C22.7128 43.2361 22.0968 43.5681 21.2648 43.5681C20.4648 43.5681 19.7928 43.2881 19.2488 42.7281C18.7048 42.1601 18.4328 41.4361 18.4328 40.5561C18.4328 39.6761 18.7088 38.9561 19.2608 38.3961C19.8208 37.8281 20.4928 37.5441 21.2768 37.5441C22.1008 37.5441 22.7128 37.8521 23.1128 38.4681V37.7121H24.3488V43.2681C24.3488 44.2281 24.0928 44.9681 23.5808 45.4881C23.0768 46.0161 22.3688 46.2801 21.4568 46.2801C20.6008 46.2801 19.9288 46.1081 19.4408 45.7641C18.9528 45.4201 18.7088 44.9561 18.7088 44.3721ZM22.6928 41.9601C23.0288 41.6081 23.1968 41.1401 23.1968 40.5561C23.1968 39.9721 23.0288 39.5041 22.6928 39.1521C22.3568 38.8001 21.9288 38.6241 21.4088 38.6241C20.8888 38.6241 20.4648 38.8001 20.1368 39.1521C19.8168 39.5041 19.6568 39.9721 19.6568 40.5561C19.6568 41.1401 19.8168 41.6081 20.1368 41.9601C20.4648 42.3121 20.8888 42.4881 21.4088 42.4881C21.9288 42.4881 22.3568 42.3121 22.6928 41.9601Z" fill="#737190"/>
</svg>
