<svg width="16" height="17" viewBox="0 0 16 17" fill="none" xmlns="http://www.w3.org/2000/svg">
<g clip-path="url(#clip0_239_9366)">
<path fill-rule="evenodd" clip-rule="evenodd" d="M4.8 0.500001C4.09276 0.500001 3.41448 0.780952 2.91438 1.28105C2.41428 1.78115 2.13333 2.45942 2.13333 3.16667V3.47173C2.13333 3.9496 2.2752 4.3944 2.51947 4.76667H1.6C1.17565 4.76667 0.768687 4.93524 0.468629 5.2353C0.168571 5.53535 0 5.94232 0 6.36667L0 7.43333C0 7.85768 0.168571 8.26465 0.468629 8.5647C0.768687 8.86476 1.17565 9.03333 1.6 9.03333H7.46667V4.76667H8.53333V9.03333H14.4C14.8243 9.03333 15.2313 8.86476 15.5314 8.5647C15.8314 8.26465 16 7.85768 16 7.43333V6.36667C16 5.94232 15.8314 5.53535 15.5314 5.2353C15.2313 4.93524 14.8243 4.76667 14.4 4.76667H13.4805C13.7248 4.3944 13.8667 3.9496 13.8667 3.47173V3.16667C13.8667 2.45942 13.5857 1.78115 13.0856 1.28105C12.5855 0.780952 11.9072 0.500001 11.2 0.500001C9.84213 0.500001 8.6528 1.22533 8 2.30907C7.66815 1.75694 7.19901 1.30014 6.63824 0.983117C6.07747 0.666096 5.44418 0.499657 4.8 0.500001ZM8.53333 4.76667H11.5051C12.2197 4.76667 12.8 4.1864 12.8 3.47173V3.16667C12.8 2.74232 12.6314 2.33535 12.3314 2.0353C12.0313 1.73524 11.6243 1.56667 11.2 1.56667C10.4928 1.56667 9.81448 1.84762 9.31438 2.34772C8.81429 2.84781 8.53333 3.52609 8.53333 4.23333V4.76667ZM7.46667 4.76667H4.49493C3.78027 4.76667 3.2 4.1864 3.2 3.47173V3.16667C3.2 2.74232 3.36857 2.33535 3.66863 2.0353C3.96869 1.73524 4.37565 1.56667 4.8 1.56667C5.15019 1.56667 5.49695 1.63564 5.82049 1.76966C6.14402 1.90367 6.438 2.10009 6.68562 2.34772C6.93324 2.59534 7.12967 2.88931 7.26368 3.21284C7.39769 3.53638 7.46667 3.88314 7.46667 4.23333V4.76667Z" fill="#959699"/>
<path d="M7.46641 10.0996H1.06641V13.8329C1.06641 14.5402 1.34736 15.2185 1.84745 15.7186C2.34755 16.2187 3.02583 16.4996 3.73307 16.4996H7.46641V10.0996ZM8.53307 16.4996H12.2664C12.9737 16.4996 13.6519 16.2187 14.152 15.7186C14.6521 15.2185 14.9331 14.5402 14.9331 13.8329V10.0996H8.53307V16.4996Z" fill="#959699"/>
</g>
<defs>
<clipPath id="clip0_239_9366">
<rect width="16" height="16" fill="white" transform="translate(0 0.5)"/>
</clipPath>
</defs>
</svg>
