<svg width="49" height="49" viewBox="0 0 49 49" fill="none" xmlns="http://www.w3.org/2000/svg">
<circle cx="24.1016" cy="24.0508" r="24" fill="black"/>
<g clip-path="url(#clip0_239_9863)">
<path d="M19.1255 14.3611C19.8765 14.6155 20.5909 14.9671 21.2505 15.4071C22.1821 15.169 23.14 15.0494 24.1015 15.0511C25.0945 15.0511 26.0525 15.1751 26.9505 15.4061C27.6099 14.9666 28.324 14.6152 29.0745 14.3611C29.7715 14.1241 30.7645 13.7401 31.3545 14.3931C31.7545 14.8371 31.8545 15.5811 31.9255 16.1491C32.0055 16.7831 32.0245 17.6091 31.8145 18.4291C32.6175 19.4661 33.1015 20.7031 33.1015 22.0511C33.1015 24.0931 31.9955 25.8661 30.3585 27.0941C29.5707 27.6776 28.697 28.1351 27.7685 28.4501C27.9825 28.9401 28.1015 29.4821 28.1015 30.0511V33.0511C28.1015 33.3163 27.9962 33.5707 27.8087 33.7582C27.6211 33.9457 27.3668 34.0511 27.1015 34.0511H21.1015C20.8363 34.0511 20.582 33.9457 20.3944 33.7582C20.2069 33.5707 20.1015 33.3163 20.1015 33.0511V32.0601C19.1465 32.1771 18.3455 32.0731 17.6645 31.7841C16.9525 31.4821 16.4565 31.0141 16.0835 30.5661C15.7295 30.1421 15.3435 29.1861 14.7855 29.0001C14.6609 28.9586 14.5457 28.893 14.4464 28.8069C14.3472 28.7209 14.2658 28.6162 14.2071 28.4987C14.0883 28.2615 14.0687 27.9868 14.1525 27.7351C14.2364 27.4834 14.4167 27.2753 14.6539 27.1566C14.8912 27.0379 15.1659 27.0183 15.4175 27.1021C16.0835 27.3241 16.5175 27.8041 16.8145 28.1901C17.2945 28.8101 17.6845 29.6201 18.4445 29.9431C18.7575 30.0761 19.2165 30.1631 19.9345 30.0651L20.1015 30.0311C20.1035 29.4869 20.2168 28.9488 20.4345 28.4501C19.5061 28.1351 18.6324 27.6776 17.8445 27.0941C16.2075 25.8661 15.1015 24.0941 15.1015 22.0511C15.1015 20.7051 15.5845 19.4691 16.3855 18.4331C16.1755 17.6131 16.1935 16.7851 16.2735 16.1501L16.2785 16.1121C16.3515 15.5301 16.4365 14.8451 16.8445 14.3931C17.4345 13.7401 18.4285 14.1251 19.1245 14.3621L19.1255 14.3611Z" fill="rgba(239, 176, 52, 1)"/>
</g>
<defs>
<clipPath id="clip0_239_9863">
<rect width="24" height="24" fill="white" transform="translate(12.1016 12.0508)"/>
</clipPath>
</defs>
</svg>
