<svg width="52" height="51" viewBox="0 0 52 51" fill="none" xmlns="http://www.w3.org/2000/svg">
<rect x="0.993408" y="1" width="49.6667" height="49" rx="7.5" fill="rgba(239, 176, 52, 1)"/>
<g clip-path="url(#clip0_255_25060)">
<path d="M37.0062 23.8819L36.9002 23.4323H27.1296V27.5677H32.9674C32.3613 30.4458 29.5488 31.9608 27.2515 31.9608C25.5799 31.9608 23.8179 31.2577 22.6516 30.1275C22.0363 29.5217 21.5465 28.8005 21.2103 28.0051C20.8741 27.2098 20.698 26.356 20.6923 25.4925C20.6923 23.7506 21.4751 22.0083 22.6141 20.8622C23.7532 19.7161 25.4735 19.0748 27.184 19.0748C29.1429 19.0748 30.5468 20.115 31.0718 20.5894L34.0104 17.6662C33.1483 16.9087 30.7802 15 27.0893 15C24.2416 15 21.5112 16.0908 19.5152 18.0802C17.5455 20.0391 16.526 22.8717 16.526 25.5C16.526 28.1283 17.4907 30.8194 19.3994 32.7938C21.439 34.8994 24.3274 36 27.3016 36C30.0077 36 32.5727 34.9397 34.4008 33.0159C36.198 31.1222 37.1276 28.5019 37.1276 25.755C37.1276 24.5986 37.0113 23.9119 37.0062 23.8819Z" fill="white"/>
</g>
<rect x="0.993408" y="1" width="49.6667" height="49" rx="7.5" stroke="rgba(239, 176, 52, 1)"/>
<defs>
<clipPath id="clip0_255_25060">
<rect width="24" height="24" fill="white" transform="translate(13.8268 13.5)"/>
</clipPath>
</defs>
</svg>
