<svg width="13" height="13" viewBox="0 0 13 13" fill="none" xmlns="http://www.w3.org/2000/svg">
<path d="M5.39063 4.84082C5.39063 4.69248 5.43461 4.54748 5.51703 4.42414C5.59944 4.30081 5.71657 4.20468 5.85362 4.14791C5.99066 4.09115 6.14146 4.07629 6.28695 4.10523C6.43243 4.13417 6.56607 4.2056 6.67096 4.31049C6.77585 4.41538 6.84728 4.54902 6.87622 4.6945C6.90516 4.83999 6.8903 4.99079 6.83354 5.12783C6.77677 5.26488 6.68064 5.38201 6.55731 5.46442C6.43397 5.54683 6.28896 5.59082 6.14063 5.59082C5.94172 5.59082 5.75095 5.5118 5.6103 5.37115C5.46965 5.2305 5.39063 5.03973 5.39063 4.84082ZM11.3906 6.90332C11.3906 7.90459 11.0937 8.88337 10.5374 9.7159C9.98117 10.5484 9.19051 11.1973 8.26546 11.5805C7.34041 11.9636 6.32251 12.0639 5.34048 11.8685C4.35845 11.6732 3.4564 11.1911 2.7484 10.4831C2.0404 9.77505 1.55824 8.87299 1.3629 7.89097C1.16756 6.90894 1.26782 5.89104 1.65099 4.96599C2.03416 4.04093 2.68303 3.25028 3.51555 2.69401C4.34808 2.13773 5.32686 1.84082 6.32813 1.84082C7.67033 1.84231 8.95713 2.37616 9.90621 3.32524C10.8553 4.27432 11.3891 5.56112 11.3906 6.90332ZM10.2656 6.90332C10.2656 6.12456 10.0347 5.36328 9.60204 4.71576C9.16938 4.06824 8.55443 3.56357 7.83494 3.26554C7.11546 2.96752 6.32376 2.88955 5.55996 3.04148C4.79616 3.19341 4.09456 3.56842 3.54389 4.11909C2.99323 4.66976 2.61821 5.37135 2.46629 6.13515C2.31436 6.89895 2.39233 7.69065 2.69035 8.41014C2.98837 9.12962 3.49305 9.74458 4.14057 10.1772C4.78809 10.6099 5.54936 10.8408 6.32813 10.8408C7.37208 10.8397 8.37294 10.4245 9.11113 9.68632C9.84931 8.94814 10.2645 7.94727 10.2656 6.90332ZM6.89063 8.6227V7.09082C6.89063 6.84218 6.79186 6.60372 6.61604 6.42791C6.44023 6.25209 6.20177 6.15332 5.95313 6.15332C5.82029 6.15312 5.69167 6.19994 5.59004 6.28549C5.48841 6.37104 5.42034 6.4898 5.39789 6.62073C5.37543 6.75165 5.40003 6.8863 5.46734 7.00083C5.53465 7.11536 5.64032 7.20236 5.76563 7.24645V8.77832C5.76563 9.02696 5.8644 9.26542 6.04022 9.44123C6.21603 9.61705 6.45449 9.71582 6.70313 9.71582C6.83597 9.71602 6.96459 9.6692 7.06622 9.58365C7.16784 9.4981 7.23591 9.37934 7.25837 9.24842C7.28083 9.11749 7.25622 8.98284 7.18892 8.86831C7.12161 8.75379 7.01594 8.66678 6.89063 8.6227Z" fill="#959699"/>
</svg>
