<svg width="17" height="17" viewBox="0 0 17 17" fill="none" xmlns="http://www.w3.org/2000/svg">
<g clip-path="url(#clip0_601_1612)">
<path d="M8.5013 12.027C7.57908 12.027 6.79286 11.7019 6.14264 11.0517C5.49242 10.4015 5.16753 9.61547 5.16797 8.69369C5.16797 7.77147 5.49308 6.98524 6.1433 6.33502C6.79353 5.6848 7.57953 5.35991 8.5013 5.36035C9.42353 5.36035 10.2097 5.68547 10.86 6.33569C11.5102 6.98591 11.8351 7.77191 11.8346 8.69369C11.8346 9.61591 11.5095 10.4021 10.8593 11.0524C10.2091 11.7026 9.42308 12.0275 8.5013 12.027ZM1.83464 9.36035C1.64575 9.36035 1.4873 9.29635 1.3593 9.16835C1.2313 9.04035 1.16753 8.88213 1.16797 8.69369C1.16797 8.5048 1.23197 8.34635 1.35997 8.21835C1.48797 8.09035 1.64619 8.02658 1.83464 8.02702H3.16797C3.35686 8.02702 3.5153 8.09102 3.6433 8.21902C3.7713 8.34702 3.83508 8.50524 3.83464 8.69369C3.83464 8.88258 3.77064 9.04102 3.64264 9.16902C3.51464 9.29702 3.35642 9.3608 3.16797 9.36035H1.83464ZM13.8346 9.36035C13.6457 9.36035 13.4873 9.29635 13.3593 9.16835C13.2313 9.04035 13.1675 8.88213 13.168 8.69369C13.168 8.5048 13.232 8.34635 13.36 8.21835C13.488 8.09035 13.6462 8.02658 13.8346 8.02702H15.168C15.3569 8.02702 15.5153 8.09102 15.6433 8.21902C15.7713 8.34702 15.8351 8.50524 15.8346 8.69369C15.8346 8.88258 15.7706 9.04102 15.6426 9.16902C15.5146 9.29702 15.3564 9.3608 15.168 9.36035H13.8346ZM8.5013 4.02702C8.31242 4.02702 8.15397 3.96302 8.02597 3.83502C7.89797 3.70702 7.83419 3.5488 7.83464 3.36035V2.02702C7.83464 1.83813 7.89864 1.67969 8.02664 1.55169C8.15464 1.42369 8.31286 1.35991 8.5013 1.36035C8.69019 1.36035 8.84864 1.42435 8.97664 1.55235C9.10464 1.68035 9.16842 1.83858 9.16797 2.02702V3.36035C9.16797 3.54924 9.10397 3.70769 8.97597 3.83569C8.84797 3.96369 8.68975 4.02746 8.5013 4.02702ZM8.5013 16.027C8.31242 16.027 8.15397 15.963 8.02597 15.835C7.89797 15.707 7.83419 15.5488 7.83464 15.3604V14.027C7.83464 13.8381 7.89864 13.6797 8.02664 13.5517C8.15464 13.4237 8.31286 13.3599 8.5013 13.3604C8.69019 13.3604 8.84864 13.4244 8.97664 13.5524C9.10464 13.6804 9.16842 13.8386 9.16797 14.027V15.3604C9.16797 15.5492 9.10397 15.7077 8.97597 15.8357C8.84797 15.9637 8.68975 16.0275 8.5013 16.027ZM4.26797 5.39369L3.5513 4.69369C3.41797 4.57147 3.35397 4.41591 3.3593 4.22702C3.36464 4.03813 3.42864 3.87702 3.5513 3.74369C3.68464 3.61035 3.84575 3.54369 4.03464 3.54369C4.22353 3.54369 4.37908 3.61035 4.5013 3.74369L5.2013 4.46035C5.32353 4.59369 5.38464 4.74924 5.38464 4.92702C5.38464 5.1048 5.32353 5.26035 5.2013 5.39369C5.07908 5.52702 4.92642 5.59102 4.7433 5.58569C4.56019 5.58035 4.40175 5.51635 4.26797 5.39369ZM12.5013 13.6437L11.8013 12.927C11.6791 12.7937 11.618 12.6352 11.618 12.4517C11.618 12.2681 11.6791 12.1155 11.8013 11.9937C11.9235 11.8604 12.0764 11.7966 12.26 11.8024C12.4435 11.8081 12.6017 11.8719 12.7346 11.9937L13.4513 12.6937C13.5846 12.8159 13.6486 12.9715 13.6433 13.1604C13.638 13.3492 13.574 13.5104 13.4513 13.6437C13.318 13.777 13.1569 13.8437 12.968 13.8437C12.7791 13.8437 12.6235 13.777 12.5013 13.6437ZM11.8013 5.39369C11.668 5.27147 11.604 5.1188 11.6093 4.93569C11.6146 4.75258 11.6786 4.59413 11.8013 4.46035L12.5013 3.74369C12.6235 3.61035 12.7791 3.54635 12.968 3.55169C13.1569 3.55702 13.318 3.62102 13.4513 3.74369C13.5846 3.87702 13.6513 4.03813 13.6513 4.22702C13.6513 4.41591 13.5846 4.57147 13.4513 4.69369L12.7346 5.39369C12.6013 5.51591 12.4457 5.57702 12.268 5.57702C12.0902 5.57702 11.9346 5.51591 11.8013 5.39369ZM3.5513 13.6437C3.41797 13.5104 3.3513 13.3492 3.3513 13.1604C3.3513 12.9715 3.41797 12.8159 3.5513 12.6937L4.26797 11.9937C4.4013 11.8715 4.55953 11.8104 4.74264 11.8104C4.92575 11.8104 5.07864 11.8715 5.2013 11.9937C5.33464 12.1159 5.39864 12.2688 5.3933 12.4524C5.38797 12.6359 5.32397 12.7941 5.2013 12.927L4.5013 13.6437C4.37908 13.777 4.22353 13.841 4.03464 13.8357C3.84575 13.8304 3.68464 13.7664 3.5513 13.6437Z" fill="#959699"/>
</g>
<defs>
<clipPath id="clip0_601_1612">
<rect width="16" height="16" fill="white" transform="translate(0.5 0.693359)"/>
</clipPath>
</defs>
</svg>
