<svg width="92" height="21" viewBox="0 0 92 21" fill="none" xmlns="http://www.w3.org/2000/svg">
<path d="M0.101562 20.5625V0.587891H6.55052C9.91767 0.587891 12.6095 1.45346 14.626 3.18459C16.6615 4.8967 17.6792 7.36024 17.6792 10.5752C17.6792 13.7902 16.6615 16.2632 14.626 17.9944C12.6095 19.7065 9.91767 20.5625 6.55052 20.5625H0.101562ZM4.72426 16.3964H6.97854C8.88089 16.3964 10.3647 15.8828 11.43 14.8555C12.5144 13.8282 13.0565 12.4015 13.0565 10.5752C13.0565 8.74896 12.5144 7.3222 11.43 6.29493C10.3647 5.26766 8.88089 4.75403 6.97854 4.75403H4.72426V16.3964Z" fill="url(#paint0_linear_602_3270)"/>
<path d="M22.0074 18.9646C20.4856 17.6139 19.7246 15.7876 19.7246 13.4858C19.7246 11.184 20.4856 9.36722 22.0074 8.03558C23.5483 6.68491 25.4031 6.00958 27.5718 6.00958C29.7405 6.00958 31.5858 6.68491 33.1076 8.03558C34.6485 9.36722 35.419 11.184 35.419 13.4858C35.419 15.7876 34.6485 17.6139 33.1076 18.9646C31.5858 20.2962 29.7405 20.962 27.5718 20.962C25.4031 20.962 23.5483 20.2962 22.0074 18.9646ZM30.0544 15.9684C30.7392 15.3406 31.0816 14.5131 31.0816 13.4858C31.0816 12.4585 30.7392 11.631 30.0544 11.0032C29.3885 10.3755 28.561 10.0616 27.5718 10.0616C26.5826 10.0616 25.7456 10.3755 25.0607 11.0032C24.3949 11.631 24.062 12.4585 24.062 13.4858C24.062 14.5131 24.3949 15.3406 25.0607 15.9684C25.7456 16.5961 26.5826 16.91 27.5718 16.91C28.561 16.91 29.3885 16.5961 30.0544 15.9684Z" fill="url(#paint1_linear_602_3270)"/>
<path d="M38.5209 16.1681V9.71915H36.4663V6.40907H38.5209V2.58535H42.8011V6.40907H45.7403V9.71915H42.8011V15.312C42.8011 15.8828 42.9438 16.3298 43.2292 16.6532C43.5145 16.9766 43.895 17.1383 44.3706 17.1383C44.8461 17.1383 45.2932 17.0622 45.7117 16.91L46.1112 20.4769C45.2552 20.8003 44.304 20.962 43.2577 20.962C41.9451 20.962 40.8227 20.5815 39.8905 19.8206C38.9774 19.0597 38.5209 17.8422 38.5209 16.1681Z" fill="url(#paint2_linear_602_3270)"/>
<path d="M48.7284 20.5625V0.587891H57.289C59.3435 0.587891 60.9605 1.02543 62.14 1.90051C63.3384 2.75657 63.9377 3.95504 63.9377 5.49594C63.9377 6.44712 63.7189 7.2461 63.2814 7.8929C62.8629 8.5397 62.2161 9.12942 61.341 9.66208C63.6238 10.6133 64.7652 12.2493 64.7652 14.5701C64.7652 16.3583 64.0708 17.8041 62.6821 18.9075C61.3124 20.0108 59.6098 20.5625 57.5743 20.5625H48.7284ZM53.3511 8.12118H57.2034C57.9833 8.12118 58.5826 7.94997 59.0011 7.60755C59.4386 7.2461 59.6574 6.75149 59.6574 6.12372C59.6574 5.51497 59.4386 5.03938 59.0011 4.69696C58.5826 4.35454 57.9833 4.18333 57.2034 4.18333H53.3511V8.12118ZM53.3511 16.7388H57.4317C59.372 16.7388 60.3422 15.9398 60.3422 14.3419C60.3422 13.5619 60.0949 12.9627 59.6003 12.5441C59.1057 12.1066 58.3828 11.8878 57.4317 11.8878H53.3511V16.7388Z" fill="url(#paint3_linear_602_3270)"/>
<path d="M66.4566 13.4858C66.4566 11.2981 67.17 9.50989 68.5967 8.12118C70.0425 6.71344 71.8497 6.00958 74.0184 6.00958C76.0729 6.00958 77.747 6.68491 79.0406 8.03558C80.3342 9.38624 80.981 11.0698 80.981 13.0863V14.5416H70.5086C70.6227 15.3786 70.9937 16.054 71.6214 16.5676C72.2492 17.0622 73.0102 17.3095 73.9043 17.3095C75.4452 17.3095 76.6436 16.5676 77.4997 15.0838L80.5815 16.8244C79.8967 18.2131 79.0025 19.2499 77.8992 19.9347C76.8148 20.6196 75.4261 20.962 73.733 20.962C71.7736 21.0001 70.0615 20.2962 68.5967 18.8504C67.1319 17.4046 66.4185 15.6164 66.4566 13.4858ZM70.6798 11.5454H77.1287C76.9575 10.8415 76.5866 10.2994 76.0159 9.9189C75.4452 9.51941 74.7508 9.31966 73.9328 9.31966C73.1528 9.31966 72.4775 9.51941 71.9068 9.9189C71.3361 10.3184 70.9271 10.8606 70.6798 11.5454Z" fill="url(#paint4_linear_602_3270)"/>
<path d="M84.2775 16.1681V9.71915H82.2229V6.40907H84.2775V2.58535H88.5577V6.40907H91.4969V9.71915H88.5577V15.312C88.5577 15.8828 88.7004 16.3298 88.9858 16.6532C89.2711 16.9766 89.6516 17.1383 90.1272 17.1383C90.6028 17.1383 91.0498 17.0622 91.4683 16.91L91.8678 20.4769C91.0118 20.8003 90.0606 20.962 89.0143 20.962C87.7017 20.962 86.5793 20.5815 85.6472 19.8206C84.734 19.0597 84.2775 17.8422 84.2775 16.1681Z" fill="url(#paint5_linear_602_3270)"/>
<defs>
<linearGradient id="paint0_linear_602_3270" x1="45.9847" y1="0.587891" x2="45.9847" y2="20.9635" gradientUnits="userSpaceOnUse">
<stop stop-color="#42930E"/>
<stop offset="0.494792" stop-color="#54AA1E"/>
<stop offset="1" stop-color="#428F10"/>
</linearGradient>
<linearGradient id="paint1_linear_602_3270" x1="45.9847" y1="0.587891" x2="45.9847" y2="20.9635" gradientUnits="userSpaceOnUse">
<stop stop-color="#42930E"/>
<stop offset="0.494792" stop-color="#54AA1E"/>
<stop offset="1" stop-color="#428F10"/>
</linearGradient>
<linearGradient id="paint2_linear_602_3270" x1="45.9847" y1="0.587891" x2="45.9847" y2="20.9635" gradientUnits="userSpaceOnUse">
<stop stop-color="#42930E"/>
<stop offset="0.494792" stop-color="#54AA1E"/>
<stop offset="1" stop-color="#428F10"/>
</linearGradient>
<linearGradient id="paint3_linear_602_3270" x1="45.9847" y1="0.587891" x2="45.9847" y2="20.9635" gradientUnits="userSpaceOnUse">
<stop stop-color="#42930E"/>
<stop offset="0.494792" stop-color="#54AA1E"/>
<stop offset="1" stop-color="#428F10"/>
</linearGradient>
<linearGradient id="paint4_linear_602_3270" x1="45.9847" y1="0.587891" x2="45.9847" y2="20.9635" gradientUnits="userSpaceOnUse">
<stop stop-color="#42930E"/>
<stop offset="0.494792" stop-color="#54AA1E"/>
<stop offset="1" stop-color="#428F10"/>
</linearGradient>
<linearGradient id="paint5_linear_602_3270" x1="45.9847" y1="0.587891" x2="45.9847" y2="20.9635" gradientUnits="userSpaceOnUse">
<stop stop-color="#42930E"/>
<stop offset="0.494792" stop-color="#54AA1E"/>
<stop offset="1" stop-color="#428F10"/>
</linearGradient>
</defs>
</svg>
