<svg width="17" height="16" viewBox="0 0 17 16" fill="none" xmlns="http://www.w3.org/2000/svg">
<path d="M15.0377 13.1684L12.0974 10.2281C12.8053 9.28573 13.1874 8.13865 13.1861 6.96C13.1861 3.94938 10.7367 1.5 7.72611 1.5C4.71549 1.5 2.26611 3.94938 2.26611 6.96C2.26611 9.97062 4.71549 12.42 7.72611 12.42C8.90476 12.4213 10.0518 12.0391 10.9942 11.3313L13.9346 14.2716C14.0834 14.4046 14.2775 14.4756 14.4771 14.47C14.6766 14.4645 14.8665 14.3827 15.0076 14.2415C15.1488 14.1004 15.2306 13.9105 15.2362 13.711C15.2417 13.5114 15.1707 13.3173 15.0377 13.1684ZM3.82611 6.96C3.82611 6.18865 4.05484 5.43463 4.48338 4.79328C4.91192 4.15192 5.52102 3.65205 6.23365 3.35687C6.94628 3.06169 7.73044 2.98446 8.48697 3.13494C9.24349 3.28542 9.9384 3.65686 10.4838 4.20228C11.0293 4.74771 11.4007 5.44262 11.5512 6.19915C11.7017 6.95567 11.6244 7.73983 11.3292 8.45247C11.0341 9.1651 10.5342 9.77419 9.89284 10.2027C9.25149 10.6313 8.49746 10.86 7.72611 10.86C6.69215 10.8588 5.70089 10.4475 4.96977 9.71635C4.23864 8.98522 3.82735 7.99396 3.82611 6.96Z" fill="#C7C8CF"/>
</svg>
