<svg width="19" height="18" viewBox="0 0 19 18" fill="none" xmlns="http://www.w3.org/2000/svg">
<path d="M0.788644 4.08681C-0.0662291 4.29122 -0.25071 5.42532 0.495003 5.89031L5.32805 8.90251C5.46463 8.98757 5.62192 9.03355 5.78281 9.03546C5.94371 9.03737 6.10205 8.99512 6.24061 8.91333L12.3338 5.31861C12.6548 5.12964 12.9942 5.53411 12.7523 5.81745L8.15451 11.1935C8.04989 11.3158 7.9808 11.4644 7.95474 11.6232C7.92868 11.782 7.94665 11.9448 8.0067 12.0941L10.1355 17.3794C10.4639 18.1952 11.6132 18.2102 11.9629 17.4038L18.9085 1.38532C19.2329 0.636371 18.5634 -0.161434 17.7698 0.0283497L0.788644 4.08681Z" fill="url(#paint0_linear_239_9843)"/>
<defs>
<linearGradient id="paint0_linear_239_9843" x1="9.51023" y1="0" x2="9.51023" y2="18" gradientUnits="userSpaceOnUse">
<stop stop-color="#479813"/>
<stop offset="0.494792" stop-color="#479813"/>
<stop offset="1" stop-color="#479813"/>
</linearGradient>
</defs>
</svg>
