<svg width="16" height="16" viewBox="0 0 16 16" fill="none" xmlns="http://www.w3.org/2000/svg">
<path d="M8.66667 10.6666L11.3333 7.99996M11.3333 7.99996L8.66667 5.33329M11.3333 7.99996H2M5.33333 10.6666V11.3333C5.33333 11.8637 5.54405 12.3724 5.91912 12.7475C6.29419 13.1226 6.8029 13.3333 7.33333 13.3333H12C12.5304 13.3333 13.0391 13.1226 13.4142 12.7475C13.7893 12.3724 14 11.8637 14 11.3333V4.66663C14 4.13619 13.7893 3.62749 13.4142 3.25241C13.0391 2.87734 12.5304 2.66663 12 2.66663H7.33333C6.8029 2.66663 6.29419 2.87734 5.91912 3.25241C5.54405 3.62749 5.33333 4.13619 5.33333 4.66663V5.33329" stroke="#C7C8CF" strokeLinecap="round" strokeLinejoin="round"/>
</svg>
