<svg width="16" height="16" viewBox="0 0 16 16" fill="none" xmlns="http://www.w3.org/2000/svg">
<path d="M7.38623 8C7.97957 8 8.55959 7.82405 9.05294 7.49441C9.54629 7.16477 9.93081 6.69623 10.1579 6.14805C10.3849 5.59987 10.4443 4.99667 10.3286 4.41473C10.2128 3.83279 9.92711 3.29824 9.50755 2.87868C9.08799 2.45912 8.55344 2.1734 7.9715 2.05765C7.38956 1.94189 6.78636 2.0013 6.23818 2.22836C5.69 2.45543 5.22147 2.83994 4.89182 3.33329C4.56218 3.82664 4.38623 4.40666 4.38623 5C4.38714 5.79537 4.7035 6.55791 5.26591 7.12032C5.82832 7.68273 6.59086 7.99909 7.38623 8ZM7.38623 2.85714C7.81005 2.85714 8.22435 2.98282 8.57674 3.21828C8.92913 3.45374 9.20378 3.78841 9.36597 4.17996C9.52816 4.57152 9.5706 5.00238 9.48791 5.41805C9.40523 5.83372 9.20114 6.21555 8.90146 6.51523C8.60177 6.81491 8.21995 7.019 7.80428 7.10168C7.38861 7.18437 6.95775 7.14193 6.56619 6.97974C6.17464 6.81755 5.83997 6.5429 5.60451 6.19051C5.36905 5.83812 5.24337 5.42382 5.24337 5C5.24405 4.43189 5.47004 3.88724 5.87175 3.48552C6.27347 3.08381 6.81812 2.85782 7.38623 2.85714Z" fill="white"/>
<path d="M13.5715 11.4285H12.2858V10.1428C12.2858 10.0291 12.2406 9.92013 12.1603 9.83976C12.0799 9.75939 11.9709 9.71423 11.8572 9.71423C11.7435 9.71423 11.6345 9.75939 11.5542 9.83976C11.4738 9.92013 11.4286 10.0291 11.4286 10.1428V11.4285H10.1429C10.0293 11.4285 9.92025 11.4737 9.83988 11.554C9.75951 11.6344 9.71436 11.7434 9.71436 11.8571C9.71436 11.9708 9.75951 12.0798 9.83988 12.1601C9.92025 12.2405 10.0293 12.2857 10.1429 12.2857H11.4286V13.5714C11.4286 13.685 11.4738 13.794 11.5542 13.8744C11.6345 13.9548 11.7435 13.9999 11.8572 13.9999C11.9709 13.9999 12.0799 13.9548 12.1603 13.8744C12.2406 13.794 12.2858 13.685 12.2858 13.5714V12.2857H13.5715C13.6852 12.2857 13.7942 12.2405 13.8745 12.1601C13.9549 12.0798 14.0001 11.9708 14.0001 11.8571C14.0001 11.7434 13.9549 11.6344 13.8745 11.554C13.7942 11.4737 13.6852 11.4285 13.5715 11.4285Z" fill="white"/>
<path d="M10.143 13.1428H3.29319C3.22343 13.1426 3.15473 13.1258 3.09268 13.094C3.03064 13.0621 2.97701 13.016 2.93619 12.9594C2.89858 12.9098 2.87353 12.8519 2.86315 12.7906C2.85278 12.7292 2.8574 12.6663 2.87662 12.6071C3.18938 11.6601 3.79441 10.8367 4.60469 10.2553C5.41498 9.67391 6.38877 9.36444 7.38604 9.37141C8.2798 9.3704 9.1559 9.62031 9.91461 10.0927C9.96245 10.1225 10.0157 10.1425 10.0713 10.1517C10.1269 10.1609 10.1837 10.1591 10.2386 10.1463C10.2935 10.1335 10.3453 10.1101 10.3911 10.0773C10.4369 10.0445 10.4758 10.003 10.5056 9.95513C10.5354 9.90729 10.5554 9.85405 10.5646 9.79846C10.5738 9.74287 10.572 9.68601 10.5592 9.63113C10.5465 9.57626 10.523 9.52443 10.4902 9.47862C10.4574 9.4328 10.4159 9.3939 10.368 9.36413C9.47315 8.80738 8.43999 8.51293 7.38604 8.51427C6.20784 8.50688 5.05765 8.8734 4.10094 9.56111C3.14423 10.2488 2.43032 11.2223 2.0619 12.3414C2.00019 12.5292 1.98432 12.7289 2.01564 12.9241C2.04695 13.1192 2.12454 13.304 2.2419 13.463C2.36251 13.6289 2.52058 13.764 2.70326 13.8573C2.88594 13.9506 3.08806 13.9995 3.29319 14H10.143C10.2567 14 10.3657 13.9548 10.4461 13.8745C10.5265 13.7941 10.5716 13.6851 10.5716 13.5714C10.5716 13.4577 10.5265 13.3487 10.4461 13.2684C10.3657 13.188 10.2567 13.1428 10.143 13.1428Z" fill="white"/>
</svg>
