<svg width="51" height="51" viewBox="0 0 51 51" fill="none" xmlns="http://www.w3.org/2000/svg">
<rect x="0.660034" y="1" width="49.6667" height="49" rx="7.5" fill="rgba(239, 176, 52, 1)"/>
<path d="M34.1584 17.217L16.4284 24.054C15.2184 24.54 15.2254 25.215 16.2064 25.516L20.7584 26.936L31.2904 20.291C31.7884 19.988 32.2434 20.151 31.8694 20.483L23.3364 28.184H23.3344L23.3364 28.185L23.0224 32.877C23.4824 32.877 23.6854 32.666 23.9434 32.417L26.1544 30.267L30.7534 33.664C31.6014 34.131 32.2104 33.891 32.4214 32.879L35.4404 18.651C35.7494 17.412 34.9674 16.851 34.1584 17.217Z" fill="white"/>
<rect x="0.660034" y="1" width="49.6667" height="49" rx="7.5" stroke="rgba(239, 176, 52, 1)"/>
</svg>
