<svg width="52" height="51" viewBox="0 0 52 51" fill="none" xmlns="http://www.w3.org/2000/svg">
<rect x="0.993408" y="1" width="49.6667" height="49" rx="7.5" fill="rgba(239, 176, 52, 1)"/>
<path d="M35.8268 19.3C35.0751 19.6261 34.2802 19.8417 33.4668 19.94C34.325 19.4273 34.9681 18.6208 35.2768 17.67C34.4703 18.1501 33.5875 18.4883 32.6668 18.67C32.0513 18.0026 31.2318 17.5583 30.3366 17.4069C29.4414 17.2554 28.5213 17.4054 27.7206 17.8332C26.9198 18.261 26.2837 18.9426 25.912 19.7709C25.5403 20.5992 25.4541 21.5274 25.6668 22.41C24.0362 22.3276 22.4412 21.903 20.9854 21.1639C19.5297 20.4248 18.2456 19.3877 17.2168 18.12C16.8559 18.7502 16.6663 19.4638 16.6668 20.19C16.6655 20.8644 16.831 21.5286 17.1485 22.1236C17.4661 22.7185 17.9258 23.2257 18.4868 23.6C17.8348 23.5823 17.1967 23.4073 16.6268 23.09V23.14C16.6317 24.0849 16.9628 24.9991 17.5641 25.728C18.1654 26.4569 19 26.9557 19.9268 27.14C19.57 27.2486 19.1997 27.3058 18.8268 27.31C18.5687 27.307 18.3112 27.2836 18.0568 27.24C18.3207 28.0528 18.8314 28.7632 19.5179 29.2722C20.2043 29.7812 21.0324 30.0636 21.8868 30.08C20.444 31.2153 18.6627 31.8349 16.8268 31.84C16.4925 31.8411 16.1585 31.8211 15.8268 31.78C17.7012 32.9903 19.8856 33.6327 22.1168 33.63C23.6565 33.646 25.1839 33.355 26.6099 32.7741C28.0359 32.1932 29.3318 31.3339 30.422 30.2465C31.5122 29.1591 32.3747 27.8654 32.9593 26.4409C33.5439 25.0164 33.8388 23.4898 33.8268 21.95V21.42C34.6115 20.8348 35.2883 20.1175 35.8268 19.3Z" fill="white"/>
<rect x="0.993408" y="1" width="49.6667" height="49" rx="7.5" stroke="rgba(239, 176, 52, 1)"/>
</svg>
