<svg width="49" height="49" viewBox="0 0 49 49" fill="none" xmlns="http://www.w3.org/2000/svg">
<circle cx="24.1016" cy="24.0508" r="24" fill="black"/>
<path d="M34.1504 17.6361C33.3987 17.9622 32.6038 18.1778 31.7904 18.2761C32.6486 17.7635 33.2917 16.9569 33.6004 16.0061C32.7939 16.4862 31.9112 16.8244 30.9904 17.0061C30.3749 16.3387 29.5554 15.8944 28.6602 15.743C27.765 15.5916 26.8449 15.7415 26.0442 16.1693C25.2434 16.5972 24.6073 17.2787 24.2356 18.107C23.8639 18.9353 23.7777 19.8635 23.9904 20.7461C22.3598 20.6637 20.7648 20.2391 19.309 19.5C17.8533 18.7609 16.5692 17.7238 15.5404 16.4561C15.1795 17.0863 14.9899 17.8 14.9904 18.5261C14.9891 19.2005 15.1546 19.8648 15.4721 20.4597C15.7897 21.0547 16.2494 21.5619 16.8104 21.9361C16.1584 21.9184 15.5203 21.7434 14.9504 21.4261V21.4761C14.9553 22.421 15.2864 23.3352 15.8877 24.0641C16.489 24.793 17.3236 25.2918 18.2504 25.4761C17.8936 25.5847 17.5233 25.642 17.1504 25.6461C16.8923 25.6431 16.6348 25.6197 16.3804 25.5761C16.6443 26.389 17.155 27.0993 17.8415 27.6083C18.5279 28.1173 19.356 28.3997 20.2104 28.4161C18.7676 29.5514 16.9863 30.171 15.1504 30.1761C14.8161 30.1772 14.4821 30.1572 14.1504 30.1161C16.0248 31.3264 18.2092 31.9689 20.4404 31.9661C21.9801 31.9821 23.5075 31.6912 24.9335 31.1102C26.3595 30.5293 27.6554 29.67 28.7456 28.5826C29.8358 27.4953 30.6984 26.2015 31.2829 24.7771C31.8675 23.3526 32.1624 21.8259 32.1504 20.2861V19.7561C32.9351 19.171 33.6119 18.4536 34.1504 17.6361Z" fill="rgba(239, 176, 52, 1)"/>
</svg>
