<svg width="52" height="51" viewBox="0 0 52 51" fill="none" xmlns="http://www.w3.org/2000/svg">
<rect x="1.32678" y="1" width="49.6667" height="49" rx="7.5" fill="rgba(239, 176, 52, 1)"/>
<g clip-path="url(#clip0_255_25076)">
<path fill-rule="evenodd" clip-rule="evenodd" d="M26.1602 15.5C20.6372 15.5 16.1602 19.977 16.1602 25.5C16.1602 27.39 16.6852 29.16 17.5982 30.668L16.7062 33.7C16.6549 33.8741 16.6516 34.0587 16.6964 34.2346C16.7412 34.4104 16.8326 34.5709 16.9609 34.6992C17.0892 34.8276 17.2497 34.9189 17.4256 34.9638C17.6014 35.0086 17.7861 35.0052 17.9602 34.954L20.9922 34.062C22.5508 35.0051 24.3384 35.5025 26.1602 35.5C31.6832 35.5 36.1602 31.023 36.1602 25.5C36.1602 19.977 31.6832 15.5 26.1602 15.5ZM23.8982 27.763C25.9212 29.785 27.8522 30.052 28.5342 30.077C29.5712 30.115 30.5812 29.323 30.9742 28.404C31.0238 28.2897 31.0418 28.1641 31.0263 28.0405C31.0108 27.9168 30.9624 27.7996 30.8862 27.701C30.3382 27.001 29.5972 26.498 28.8732 25.998C28.722 25.8935 28.5362 25.8516 28.3548 25.881C28.1734 25.9105 28.0105 26.009 27.9002 26.156L27.3002 27.071C27.2686 27.1202 27.2195 27.1555 27.1628 27.1696C27.1061 27.1837 27.0461 27.1756 26.9952 27.147C26.5882 26.914 25.9952 26.518 25.5692 26.092C25.1432 25.666 24.7712 25.1 24.5622 24.719C24.5362 24.6706 24.5288 24.6144 24.5411 24.5609C24.5534 24.5074 24.5847 24.4602 24.6292 24.428L25.5532 23.742C25.685 23.6273 25.7701 23.4682 25.7922 23.2949C25.8144 23.1215 25.772 22.9461 25.6732 22.802C25.2252 22.146 24.7032 21.312 23.9462 20.759C23.8485 20.6882 23.734 20.6441 23.6141 20.6309C23.4942 20.6178 23.3729 20.6361 23.2622 20.684C22.3422 21.078 21.5462 22.088 21.5842 23.127C21.6092 23.809 21.8762 25.74 23.8982 27.763Z" fill="white"/>
</g>
<rect x="1.32678" y="1" width="49.6667" height="49" rx="7.5" stroke="rgba(239, 176, 52, 1)"/>
<defs>
<clipPath id="clip0_255_25076">
<rect width="24" height="24" fill="white" transform="translate(14.1602 13.5)"/>
</clipPath>
</defs>
</svg>
