<svg width="25" height="25" viewBox="0 0 25 25" fill="none" xmlns="http://www.w3.org/2000/svg">
<g id="Clubs suit">
<path id="Vector" d="M16.7857 9.9285C16.4564 9.9315 16.1285 9.97263 15.8086 10.0511C16.325 9.42389 16.6525 8.66285 16.7529 7.85667C16.8533 7.05048 16.7225 6.23237 16.3757 5.49768C16.029 4.76299 15.4805 4.142 14.7943 3.70709C14.1081 3.27217 13.3124 3.04126 12.5 3.04126C11.6876 3.04126 10.8919 3.27217 10.2057 3.70709C9.51954 4.142 8.9711 4.76299 8.62433 5.49768C8.27756 6.23237 8.14676 7.05048 8.24717 7.85667C8.34758 8.66285 8.67507 9.42389 9.19145 10.0511C8.44043 9.87065 7.65462 9.89655 6.9171 10.126C6.17959 10.3555 5.5178 10.78 5.00173 11.3547C4.48565 11.9294 4.13447 12.6328 3.98532 13.3907C3.83618 14.1485 3.89461 14.9326 4.15445 15.66C4.41428 16.3873 4.86586 17.031 5.46142 17.5228C6.05698 18.0146 6.77438 18.3363 7.53776 18.454C8.30114 18.5716 9.08211 18.4807 9.79809 18.191C10.5141 17.9012 11.1384 17.4234 11.6052 16.8079C11.5967 17.5381 11.3926 18.2526 11.014 18.8771C10.6355 19.5015 10.0964 20.013 9.45288 20.3582C9.29982 20.4603 9.18365 20.6089 9.12156 20.7821C9.05947 20.9552 9.05474 21.1438 9.10808 21.3199C9.16142 21.4959 9.27 21.6502 9.41776 21.7598C9.56552 21.8694 9.74462 21.9285 9.9286 21.9285L15.0715 21.9285C15.2554 21.9285 15.4345 21.8694 15.5823 21.7598C15.7301 21.6502 15.8386 21.4959 15.892 21.3199C15.9453 21.1438 15.9406 20.9552 15.8785 20.7821C15.8164 20.6089 15.7002 20.4603 15.5472 20.3582C14.9037 20.013 14.3646 19.5015 13.986 18.8771C13.6075 18.2526 13.4033 17.5381 13.3949 16.8079C13.8373 17.386 14.4198 17.8416 15.0874 18.1317C15.755 18.4218 16.4855 18.5368 17.2099 18.4658C17.9344 18.3949 18.6287 18.1403 19.2273 17.7261C19.8259 17.312 20.3089 16.752 20.6307 16.0991C20.9525 15.4462 21.1025 14.722 21.0664 13.995C21.0302 13.268 20.8092 12.5623 20.4243 11.9445C20.0394 11.3267 19.5032 10.8173 18.8665 10.4646C18.2298 10.1118 17.5136 9.9273 16.7857 9.9285Z" fill="#99FF15"/>
</g>
</svg>
