<svg width="23" height="23" viewBox="0 0 23 23" fill="none" xmlns="http://www.w3.org/2000/svg">
<g id="Ctrl right">
<path id="Vector" d="M10.1459 4.19609C9.95918 3.97175 9.691 3.83076 9.40033 3.80415C9.10967 3.77754 8.82034 3.86748 8.59599 4.05419C8.37165 4.2409 8.23066 4.50909 8.20405 4.79975C8.17744 5.09042 8.26738 5.37975 8.45409 5.60409L13.37 11.5001L8.45409 17.3961C8.36164 17.5072 8.29198 17.6354 8.24908 17.7734C8.20617 17.9114 8.19087 18.0565 8.20405 18.2004C8.21723 18.3444 8.25862 18.4843 8.32587 18.6122C8.39312 18.7401 8.48491 18.8535 8.59599 18.946C8.82034 19.1327 9.10967 19.2226 9.40033 19.196C9.691 19.1694 9.95918 19.0284 10.1459 18.8041L15.6459 12.2041C15.8105 12.0064 15.9007 11.7573 15.9007 11.5001C15.9007 11.2429 15.8105 10.9937 15.6459 10.7961L10.1459 4.19609Z" fill="white"/>
</g>
</svg>
