<svg width="23" height="23" viewBox="0 0 23 23" fill="none" xmlns="http://www.w3.org/2000/svg">
<g id="Ctrl left">
<path id="Vector" d="M14.4052 4.05515C14.2941 3.9624 14.1659 3.89246 14.0278 3.84934C13.8897 3.80621 13.7445 3.79074 13.6004 3.80382C13.4564 3.8169 13.3163 3.85827 13.1882 3.92555C13.0602 3.99284 12.9467 4.08473 12.8542 4.19595L7.35415 10.796C7.18952 10.9936 7.09937 11.2427 7.09937 11.5C7.09937 11.7572 7.18952 12.0063 7.35415 12.204L12.8542 18.804C12.9466 18.915 13.06 19.0068 13.188 19.0741C13.3159 19.1413 13.4558 19.1827 13.5997 19.1959C13.7436 19.2091 13.8887 19.1938 14.0268 19.1509C14.1648 19.108 14.293 19.0383 14.4041 18.9459C14.5151 18.8534 14.6069 18.74 14.6742 18.6121C14.7414 18.4841 14.7828 18.3442 14.796 18.2003C14.8092 18.0564 14.7939 17.9113 14.751 17.7733C14.7081 17.6352 14.6384 17.507 14.546 17.396L9.63005 11.5L14.5438 5.60395C14.7306 5.38014 14.821 5.09128 14.795 4.80087C14.769 4.51045 14.6288 4.24223 14.4052 4.05515Z" fill="white"/>
</g>
</svg>
