<svg width="25" height="25" viewBox="0 0 25 25" fill="none" xmlns="http://www.w3.org/2000/svg">
<g id="Diamonds suits">
<path id="Vector" d="M20.8777 11.9574L13.1634 2.52878C13.0804 2.43478 12.9782 2.35951 12.8639 2.30795C12.7495 2.2564 12.6255 2.22974 12.5 2.22974C12.3746 2.22974 12.2505 2.2564 12.1362 2.30795C12.0218 2.35951 11.9197 2.43478 11.8366 2.52878L4.1223 11.9574C3.9971 12.1105 3.92871 12.3021 3.92871 12.4999C3.92871 12.6977 3.9971 12.8894 4.1223 13.0425L11.8366 22.4711C11.917 22.5693 12.0182 22.6485 12.1329 22.7029C12.2477 22.7573 12.373 22.7855 12.5 22.7855C12.627 22.7855 12.7524 22.7573 12.8671 22.7029C12.9818 22.6485 13.083 22.5693 13.1634 22.4711L20.8777 13.0425C21.0029 12.8894 21.0713 12.6977 21.0713 12.4999C21.0713 12.3021 21.0029 12.1105 20.8777 11.9574Z" fill="white"/>
</g>
</svg>
