<svg width="25" height="25" viewBox="0 0 25 25" fill="none" xmlns="http://www.w3.org/2000/svg">
<g id="Energy">
<path id="Vector" d="M14.7166 10.3049C14.7166 10.3049 15.6714 4.66407 11.7611 2.21436C11.703 3.18372 11.441 4.12992 10.9923 4.99114C10.5436 5.85237 9.91827 6.60925 9.15715 7.21236C7.48486 8.68236 4.34086 11.9858 4.37429 15.5086C4.3633 17.0148 4.77313 18.494 5.55759 19.7797C6.34205 21.0655 7.46998 22.1066 8.81429 22.7858C8.86232 22.1059 9.04559 21.4424 9.35335 20.8342C9.66111 20.2261 10.0872 19.6854 10.6066 19.2441C11.0468 18.9056 11.4153 18.4828 11.6903 18.0004C11.9654 17.518 12.1416 16.9856 12.2086 16.4344C13.3595 17.046 14.3319 17.9458 15.0309 19.0459C15.7298 20.146 16.1313 21.4086 16.196 22.7104V22.7275C17.4638 22.1455 18.546 21.2244 19.3231 20.0658C20.1001 18.9073 20.5418 17.5565 20.5991 16.1626C20.8769 12.8515 19.0631 8.35236 17.4551 6.8815C16.8481 8.23687 15.9056 9.41511 14.7166 10.3049Z" fill="white"/>
</g>
</svg>
