<svg width="29" height="28" viewBox="0 0 29 28" fill="none" xmlns="http://www.w3.org/2000/svg">
<g id="Horse">
<path id="Vector" d="M25.224 17.1C24.9858 13.7966 23.4994 10.7077 21.0666 8.46043C18.6338 6.21314 15.4369 4.97593 12.125 5H12.066C11.8612 4.41628 11.4804 3.91046 10.976 3.55226C10.4717 3.19406 9.86864 3.00111 9.25003 3V7.061L4.55003 13.846C4.32575 14.1697 4.22222 14.5618 4.25749 14.954C4.29276 15.3462 4.4646 15.7135 4.74303 15.992L5.20803 16.457C5.50463 16.7534 5.89288 16.9405 6.30947 16.9879C6.72607 17.0353 7.14643 16.9402 7.50203 16.718L10.25 15C11.0289 14.9987 11.7965 14.8146 12.4913 14.4625C13.186 14.1105 13.7884 13.6003 14.25 12.973L14.25 15C14.25 16.7 13.118 17.709 11.271 19.215C9.6661 20.3594 8.32978 21.8397 7.35503 23.553C7.27882 23.7055 7.24287 23.8749 7.25058 24.0452C7.2583 24.2155 7.30942 24.381 7.3991 24.526C7.48877 24.671 7.61402 24.7907 7.76295 24.8736C7.91189 24.9566 8.07955 25.0001 8.25003 25L22.885 25C23.071 25.0012 23.2535 24.9499 23.4116 24.8521C23.5697 24.7543 23.6971 24.6139 23.779 24.447C24.8795 22.1613 25.3769 19.6322 25.224 17.1ZM10.25 11C10.0522 11 9.85891 10.9414 9.69446 10.8315C9.53001 10.7216 9.40183 10.5654 9.32615 10.3827C9.25046 10.2 9.23066 9.99889 9.26924 9.80491C9.30783 9.61093 9.40307 9.43275 9.54292 9.29289C9.68277 9.15304 9.86096 9.0578 10.0549 9.01921C10.2489 8.98063 10.45 9.00043 10.6327 9.07612C10.8154 9.15181 10.9716 9.27998 11.0815 9.44443C11.1914 9.60888 11.25 9.80222 11.25 10C11.25 10.2652 11.1447 10.5196 10.9571 10.7071C10.7696 10.8946 10.5152 11 10.25 11Z" fill="white"/>
</g>
</svg>
