<svg width="25" height="25" viewBox="0 0 25 25" fill="none" xmlns="http://www.w3.org/2000/svg">
<g id="Cards">
<path id="Vector" d="M13.3572 2.21436L3.0715 2.21436C2.59811 2.21436 2.21436 2.59811 2.21436 3.0715L2.21436 15.9286C2.21436 16.402 2.59811 16.7858 3.0715 16.7858L13.3572 16.7858C13.8306 16.7858 14.2144 16.402 14.2144 15.9286L14.2144 3.0715C14.2144 2.59811 13.8306 2.21436 13.3572 2.21436Z" fill="white"/>
<path id="Vector_2" d="M21.8076 8.35834L16.1856 6.83691L15.7382 8.49206L20.5382 9.78977L17.6247 20.5452L7.69559 17.8615L7.24902 19.5166L18.0062 22.4249C18.1148 22.4542 18.2282 22.4619 18.3399 22.4474C18.4515 22.4329 18.5592 22.3965 18.6568 22.3404C18.7543 22.2843 18.8399 22.2095 18.9086 22.1203C18.9773 22.0311 19.0277 21.9293 19.057 21.8206L22.411 9.4092C22.4703 9.18983 22.44 8.95591 22.3268 8.75885C22.2137 8.5618 22.0269 8.41774 21.8076 8.35834Z" fill="white"/>
</g>
</svg>
