<svg width="29" height="28" viewBox="0 0 29 28" fill="none" xmlns="http://www.w3.org/2000/svg">
<g id="Event ticket">
<path id="Vector" d="M25.75 12C26.303 12 26.75 11.553 26.75 11V6C26.75 5.447 26.303 5 25.75 5L3.75 5C3.197 5 2.75 5.447 2.75 6L2.75 11C2.75 11.553 3.197 12 3.75 12C4.853 12 5.75 12.897 5.75 14C5.75 15.103 4.853 16 3.75 16C3.197 16 2.75 16.447 2.75 17L2.75 22C2.75 22.553 3.197 23 3.75 23L25.75 23C26.303 23 26.75 22.553 26.75 22V17C26.75 16.447 26.303 16 25.75 16C24.647 16 23.75 15.103 23.75 14C23.75 12.897 24.647 12 25.75 12ZM19.75 17L9.75 17V15L19.75 15V17ZM19.75 13L9.75 13V11L19.75 11L19.75 13Z" fill="white"/>
</g>
</svg>
