<svg width="25" height="25" viewBox="0 0 25 25" fill="none" xmlns="http://www.w3.org/2000/svg">
<g id="Playing cards">
<path id="Vector" d="M21.9286 3.92847L21.0714 3.92847L21.0714 21.0713H21.9286C22.1559 21.0713 22.3739 20.981 22.5346 20.8203C22.6954 20.6595 22.7857 20.4415 22.7857 20.2142L22.7857 4.78561C22.7857 4.55828 22.6954 4.34026 22.5346 4.17952C22.3739 4.01877 22.1559 3.92847 21.9286 3.92847Z" fill="#99FF15"/>
<path id="Vector_2" d="M18.5 2.21436L4.78573 2.21436C4.5584 2.21436 4.34039 2.30466 4.17964 2.46541C4.01889 2.62615 3.92859 2.84417 3.92859 3.0715L3.92859 21.9286C3.92859 22.156 4.01889 22.374 4.17964 22.5347C4.34039 22.6955 4.5584 22.7858 4.78573 22.7858L18.5 22.7858C18.7273 22.7858 18.9454 22.6955 19.1061 22.5347C19.2669 22.374 19.3572 22.156 19.3572 21.9286L19.3572 3.0715C19.3572 2.84417 19.2669 2.62615 19.1061 2.46541C18.9454 2.30466 18.7273 2.21436 18.5 2.21436ZM5.64287 5.21436C5.64287 4.96007 5.71828 4.71149 5.85956 4.50005C6.00083 4.28862 6.20163 4.12382 6.43657 4.02651C6.6715 3.9292 6.93002 3.90374 7.17942 3.95335C7.42882 4.00296 7.65792 4.12541 7.83773 4.30522C8.01754 4.48503 8.13999 4.71412 8.1896 4.96353C8.23921 5.21293 8.21375 5.47144 8.11643 5.70638C8.01912 5.94131 7.85433 6.14211 7.64289 6.28339C7.43146 6.42466 7.18288 6.50007 6.92859 6.50007C6.5876 6.50007 6.26057 6.36461 6.01945 6.12349C5.77833 5.88237 5.64287 5.55535 5.64287 5.21436ZM8.04287 13.1266C7.60339 12.6781 7.35724 12.0751 7.35724 11.4471C7.35724 10.8191 7.60339 10.2161 8.04287 9.7675C8.28609 9.51907 8.58214 9.32863 8.90906 9.21033C9.23597 9.09202 9.58534 9.04889 9.9312 9.08414C10.2771 9.11938 10.6106 9.2321 10.9069 9.41392C11.2032 9.59573 11.4548 9.84198 11.6429 10.1344C11.831 9.84198 12.0825 9.59573 12.3789 9.41392C12.6752 9.2321 13.0087 9.11938 13.3545 9.08414C13.7004 9.04889 14.0498 9.09202 14.3767 9.21033C14.7036 9.32863 14.9997 9.51907 15.2429 9.7675C15.6824 10.2161 15.9285 10.8191 15.9285 11.4471C15.9285 12.0751 15.6824 12.6781 15.2429 13.1266L11.6429 16.7858L8.04287 13.1266ZM16.3572 21.0715C16.1029 21.0715 15.8543 20.9961 15.6429 20.8548C15.4314 20.7135 15.2666 20.5127 15.1693 20.2778C15.072 20.0429 15.0465 19.7844 15.0962 19.535C15.1458 19.2855 15.2682 19.0565 15.448 18.8766C15.6278 18.6968 15.8569 18.5744 16.1063 18.5248C16.3557 18.4752 16.6142 18.5006 16.8492 18.5979C17.0841 18.6953 17.2849 18.86 17.4262 19.0715C17.5675 19.2829 17.6429 19.5315 17.6429 19.7858C17.6429 20.1268 17.5074 20.4538 17.2663 20.6949C17.0252 20.936 16.6982 21.0715 16.3572 21.0715Z" fill="#99FF15"/>
</g>
</svg>
