<svg width="23" height="23" viewBox="0 0 23 23" fill="none" xmlns="http://www.w3.org/2000/svg">
<g id="Present">
<path id="Vector" d="M3.24995 10.4001L19.75 10.4001C19.8958 10.4001 20.0357 10.3421 20.1389 10.239C20.242 10.1358 20.3 9.99594 20.3 9.85007V7.65007C20.3 7.5042 20.242 7.3643 20.1389 7.26116C20.0357 7.15801 19.8958 7.10007 19.75 7.10007L17.88 7.10007C18.0917 6.58032 18.1504 6.0109 18.0494 5.45887C17.8977 4.65997 17.4638 3.94227 16.8269 3.43678C16.1899 2.9313 15.3924 2.67177 14.58 2.70557C13.9558 2.75086 13.3512 2.94345 12.8158 3.26754C12.2804 3.59164 11.8295 4.03801 11.5 4.57007C11.1704 4.03801 10.7195 3.59164 10.1841 3.26754C9.64872 2.94345 9.04415 2.75086 8.41995 2.70557C7.60871 2.67272 6.81265 2.93228 6.17669 3.43701C5.54074 3.94174 5.10718 4.65806 4.95495 5.45557C4.85184 6.00825 4.90909 6.57889 5.11995 7.10007L3.24995 7.10007C3.10408 7.10007 2.96419 7.15801 2.86104 7.26116C2.7579 7.3643 2.69995 7.5042 2.69995 7.65007L2.69995 9.85007C2.69995 9.99594 2.7579 10.1358 2.86104 10.239C2.96419 10.3421 3.10408 10.4001 3.24995 10.4001ZM14.8 4.90007C14.9467 4.89125 15.0937 4.91365 15.2311 4.96581C15.3686 5.01797 15.4934 5.0987 15.5974 5.20266C15.7013 5.30662 15.782 5.43144 15.8342 5.5689C15.8864 5.70636 15.9088 5.85331 15.9 6.00007C15.9088 6.14682 15.8864 6.29378 15.8342 6.43123C15.782 6.56869 15.7013 6.69352 15.5974 6.79748C15.4934 6.90144 15.3686 6.98216 15.2311 7.03432C15.0937 7.08648 14.9467 7.10889 14.8 7.10007L12.82 7.10007C13.04 6.11007 13.59 4.90007 14.8 4.90007ZM8.19995 4.90007C9.40995 4.90007 9.95995 6.11007 10.18 7.10007L8.19995 7.10007C8.0532 7.10889 7.90624 7.08648 7.76878 7.03432C7.63133 6.98216 7.5065 6.90144 7.40254 6.79748C7.29858 6.69352 7.21786 6.56869 7.1657 6.43123C7.11354 6.29378 7.09113 6.14682 7.09995 6.00007C7.09113 5.85331 7.11354 5.70636 7.1657 5.5689C7.21786 5.43144 7.29858 5.30662 7.40254 5.20266C7.5065 5.0987 7.63133 5.01797 7.76878 4.96581C7.90624 4.91365 8.0532 4.89125 8.19995 4.90007Z" fill="white"/>
<path id="Vector_2" d="M15.8999 12.6001L15.8999 18.1001L12.5999 18.1001L12.5999 12.6001H10.3999L10.3999 18.1001L7.0999 18.1001L7.0999 12.6001L4.8999 12.6001L4.8999 18.1001C4.8999 18.6836 5.13169 19.2432 5.54427 19.6557C5.95685 20.0683 6.51643 20.3001 7.0999 20.3001L15.8999 20.3001C16.4834 20.3001 17.043 20.0683 17.4555 19.6557C17.8681 19.2432 18.0999 18.6836 18.0999 18.1001L18.0999 12.6001L15.8999 12.6001Z" fill="white"/>
</g>
</svg>
