<svg width="23" height="23" viewBox="0 0 23 23" fill="none" xmlns="http://www.w3.org/2000/svg">
<g id="Casino chip">
<path id="Vector" d="M11.5 2.69995C9.75948 2.69995 8.05809 3.21606 6.61094 4.18302C5.16378 5.14998 4.03587 6.52435 3.36982 8.13234C2.70376 9.74033 2.52949 11.5097 2.86904 13.2167C3.20859 14.9238 4.04671 16.4918 5.27742 17.7225C6.50812 18.9532 8.07613 19.7913 9.78316 20.1309C11.4902 20.4704 13.2596 20.2961 14.8676 19.6301C16.4756 18.964 17.8499 17.8361 18.8169 16.389C19.7838 14.9418 20.3 13.2404 20.3 11.5C20.2973 9.16685 19.3694 6.93006 17.7196 5.28031C16.0698 3.63055 13.8331 2.70257 11.5 2.69995ZM14.5228 17.3608L13.9024 15.8626C13.8466 15.7278 13.7396 15.6207 13.6049 15.5648C13.4702 15.5089 13.3188 15.5088 13.1841 15.5645C12.6505 15.7872 12.0781 15.9019 11.5 15.9019C10.9218 15.9019 10.3494 15.7872 9.81586 15.5645C9.68107 15.5088 9.52968 15.5089 9.39498 15.5648C9.26028 15.6207 9.1533 15.7278 9.09756 15.8626L8.47716 17.3597C7.26117 16.7289 6.26991 15.7376 5.63916 14.5217L7.13736 13.9013C7.27113 13.8445 7.377 13.737 7.43182 13.6025C7.48665 13.4679 7.48598 13.317 7.42996 13.183C7.20778 12.6495 7.0934 12.0773 7.0934 11.4994C7.0934 10.9215 7.20778 10.3493 7.42996 9.81585C7.45764 9.74907 7.47189 9.67749 7.47189 9.6052C7.47189 9.53291 7.45764 9.46133 7.42996 9.39455C7.37438 9.25974 7.26756 9.15252 7.13296 9.09645L5.63916 8.47715C6.26991 7.26116 7.26117 6.26991 8.47716 5.63915L9.09756 7.13625C9.13913 7.23683 9.20961 7.32282 9.30008 7.38332C9.39054 7.44383 9.49692 7.47613 9.60576 7.47615C9.67817 7.47494 9.74961 7.45923 9.81586 7.42995C10.3495 7.20775 10.9219 7.09335 11.5 7.09335C12.078 7.09335 12.6504 7.20775 13.1841 7.42995C13.3188 7.48565 13.4702 7.48554 13.6049 7.42963C13.7396 7.37373 13.8466 7.26662 13.9024 7.13185L14.5228 5.63475C15.7387 6.26551 16.73 7.25676 17.3608 8.47275L15.8626 9.09205C15.7958 9.11975 15.7351 9.16034 15.6841 9.21149C15.633 9.26265 15.5925 9.32337 15.5649 9.39019C15.5373 9.457 15.5232 9.5286 15.5233 9.60088C15.5234 9.67316 15.5378 9.74472 15.5656 9.81145C15.7878 10.3449 15.9022 10.9171 15.9022 11.495C15.9022 12.0729 15.7878 12.6451 15.5656 13.1786C15.5379 13.2453 15.5236 13.3169 15.5236 13.3892C15.5236 13.4615 15.5379 13.5331 15.5656 13.5999C15.6211 13.7347 15.728 13.8419 15.8626 13.898L17.3608 14.5184C16.731 15.7362 15.7396 16.7291 14.5228 17.3608Z" fill="white"/>
<path id="Vector_2" d="M12.5517 8.96004C12.0492 8.75176 11.4962 8.6972 10.9626 8.80327C10.4291 8.90933 9.93896 9.17125 9.55429 9.55589C9.16963 9.94053 8.90768 10.4306 8.80159 10.9642C8.69549 11.4977 8.75002 12.0507 8.95828 12.5533C9.16653 13.0558 9.51915 13.4853 9.97153 13.7874C10.4239 14.0895 10.9557 14.2507 11.4997 14.2505C12.0437 14.2503 12.5754 14.0888 13.0276 13.7864C13.4798 13.484 13.8321 13.0542 14.04 12.5515C14.3186 11.8779 14.3184 11.1212 14.0393 10.4477C13.7602 9.77426 13.2251 9.23916 12.5517 8.96004Z" fill="white"/>
</g>
</svg>
