<svg width="25" height="25" viewBox="0 0 25 25" fill="none" xmlns="http://www.w3.org/2000/svg">
<g id="Slot machine">
<path id="Vector" d="M22.7857 9.0714C22.787 8.77015 22.709 8.47387 22.5594 8.21239C22.4098 7.95091 22.194 7.73346 21.9336 7.58195C21.6732 7.43044 21.3775 7.35022 21.0763 7.34937C20.775 7.34852 20.4789 7.42707 20.2176 7.5771C19.9564 7.72713 19.7393 7.94335 19.5883 8.20398C19.4372 8.46461 19.3575 8.76045 19.3571 9.0617C19.3568 9.36295 19.4358 9.65896 19.5863 9.91994C19.7368 10.1809 19.9534 10.3976 20.2143 10.5483L20.2143 15.9285C20.2143 16.1559 20.1239 16.3739 19.9632 16.5346C19.8025 16.6954 19.5844 16.7857 19.3571 16.7857H17.6428L17.6428 18.5H19.3571C20.0391 18.5 20.6931 18.2291 21.1754 17.7468C21.6576 17.2646 21.9285 16.6105 21.9285 15.9285L21.9285 10.5483C22.1884 10.3989 22.4043 10.1838 22.5548 9.92454C22.7052 9.66533 22.7848 9.37111 22.7857 9.0714Z" fill="#99FF15"/>
<path id="Vector_2" d="M16.7857 4.78573L13.8439 4.78573C13.5132 4.022 12.9663 3.37168 12.2706 2.91484C11.5749 2.458 10.7608 2.2146 9.92852 2.2146C9.09624 2.2146 8.28213 2.458 7.58644 2.91484C6.89075 3.37168 6.34385 4.022 6.01309 4.78573L3.07138 4.78573C2.84405 4.78573 2.62603 4.87604 2.46528 5.03678C2.30454 5.19753 2.21423 5.41554 2.21423 5.64287L2.21423 14.2143C2.21423 14.4416 2.30454 14.6596 2.46528 14.8204C2.62603 14.9811 2.84405 15.0714 3.07138 15.0714L16.7857 15.0714C17.013 15.0714 17.231 14.9811 17.3918 14.8204C17.5525 14.6596 17.6428 14.4416 17.6428 14.2143L17.6428 5.64287C17.6428 5.41554 17.5525 5.19753 17.3918 5.03678C17.231 4.87604 17.013 4.78573 16.7857 4.78573ZM14.6428 12.5L5.21423 12.5C5.10057 12.5 4.99156 12.4549 4.91119 12.3745C4.83082 12.2941 4.78566 12.1851 4.78566 12.0714L4.78566 7.78573C4.78566 7.67207 4.83082 7.56306 4.91119 7.48268C4.99156 7.40231 5.10057 7.35716 5.21423 7.35716L14.6428 7.35716C14.7565 7.35716 14.8655 7.40231 14.9459 7.48268C15.0262 7.56306 15.0714 7.67207 15.0714 7.78573L15.0714 12.0714C15.0714 12.1851 15.0262 12.2941 14.9459 12.3745C14.8655 12.4549 14.7565 12.5 14.6428 12.5Z" fill="#99FF15"/>
<path id="Vector_3" d="M3.92859 16.7856L3.92859 21.9285C3.92859 22.1558 4.01889 22.3738 4.17964 22.5346C4.34039 22.6953 4.5584 22.7856 4.78573 22.7856L15.0714 22.7856C15.2988 22.7856 15.5168 22.6953 15.6775 22.5346C15.8383 22.3738 15.9286 22.1558 15.9286 21.9285L15.9286 16.7856L3.92859 16.7856ZM12.0714 20.2142L7.78573 20.2142C7.67207 20.2142 7.56306 20.1691 7.48269 20.0887C7.40231 20.0083 7.35716 19.8993 7.35716 19.7856L7.35716 18.9285C7.35716 18.8148 7.40231 18.7058 7.48269 18.6255C7.56306 18.5451 7.67207 18.4999 7.78573 18.4999H12.0714C12.1851 18.4999 12.2941 18.5451 12.3745 18.6255C12.4549 18.7058 12.5 18.8148 12.5 18.9285V19.7856C12.5 19.8993 12.4549 20.0083 12.3745 20.0887C12.2941 20.1691 12.1851 20.2142 12.0714 20.2142Z" fill="#99FF15"/>
</g>
</svg>
