<svg width="29" height="28" viewBox="0 0 29 28" fill="none" xmlns="http://www.w3.org/2000/svg">
<g id="Soccer ball">
<path id="Vector" d="M10.75 13L12.75 17H16.75L18.75 13L14.75 10L10.75 13Z" fill="white"/>
<path id="Vector_2" d="M14.75 2C12.3766 2 10.0566 2.70379 8.08316 4.02236C6.10977 5.34094 4.5717 7.21509 3.66345 9.4078C2.7552 11.6005 2.51756 14.0133 2.98058 16.3411C3.4436 18.6689 4.58649 20.8071 6.26472 22.4853C7.94295 24.1635 10.0812 25.3064 12.4089 25.7694C14.7367 26.2324 17.1495 25.9948 19.3422 25.0866C21.5349 24.1783 23.4091 22.6402 24.7276 20.6668C26.0462 18.6935 26.75 16.3734 26.75 14C26.7466 10.8185 25.4812 7.76821 23.2315 5.51852C20.9818 3.26883 17.9315 2.00344 14.75 2ZM22.818 19.883L18.982 19.825L17.85 23.5C15.8365 24.1631 13.6635 24.1631 11.65 23.5L10.518 19.825L6.68201 19.883C5.42755 18.178 4.75064 16.1168 4.75001 14V13.993L7.90201 11.775L6.66101 8.144C7.90335 6.42805 9.65665 5.14904 11.67 4.49L14.75 6.8L17.83 4.49C19.8434 5.14904 21.5967 6.42805 22.839 8.144L21.598 11.775L24.75 13.993V14C24.7494 16.1168 24.0725 18.178 22.818 19.883Z" fill="white"/>
</g>
</svg>
