<svg width="25" height="25" viewBox="0 0 25 25" fill="none" xmlns="http://www.w3.org/2000/svg">
<g id="Spaceship">
<path id="Vector" d="M22.4257 2.5776C22.3408 2.49211 22.2389 2.42548 22.1265 2.38206C22.0141 2.33864 21.8938 2.3194 21.7735 2.3256C9.74946 2.95303 5.30775 13.6639 5.26489 13.7719C5.20217 13.9277 5.18661 14.0985 5.22013 14.2631C5.25365 14.4276 5.33479 14.5787 5.45346 14.6976L10.3023 19.5465C10.4217 19.6657 10.5737 19.747 10.7391 19.7803C10.9046 19.8135 11.0761 19.7972 11.2323 19.7333C11.3395 19.6896 21.9929 15.1982 22.6735 3.23074C22.6803 3.11058 22.6618 2.99032 22.6192 2.87779C22.5765 2.76526 22.5106 2.66297 22.4257 2.5776ZM15.4263 11.9976C15.1866 12.2374 14.8811 12.4007 14.5486 12.4669C14.216 12.5331 13.8713 12.4992 13.558 12.3694C13.2448 12.2397 12.977 12.02 12.7886 11.7381C12.6002 11.4561 12.4997 11.1247 12.4997 10.7856C12.4997 10.4465 12.6002 10.1151 12.7886 9.83314C12.977 9.55122 13.2448 9.33149 13.558 9.20176C13.8713 9.07202 14.216 9.0381 14.5486 9.10429C14.8811 9.17048 15.1866 9.3338 15.4263 9.5736C15.7477 9.89508 15.9282 10.331 15.9282 10.7856C15.9282 11.2402 15.7477 11.6761 15.4263 11.9976Z" fill="white"/>
<path id="Vector_2" d="M3.16823 18.3664C3.39432 18.1387 3.66311 17.958 3.9592 17.8344C4.25528 17.7109 4.57284 17.647 4.89367 17.6465C5.21449 17.6459 5.53227 17.7087 5.82878 17.8312C6.12528 17.9538 6.39469 18.1336 6.62155 18.3605C6.84841 18.5873 7.02825 18.8567 7.15077 19.1532C7.27329 19.4498 7.33608 19.7675 7.33554 20.0884C7.33499 20.4092 7.27112 20.7267 7.14759 21.0228C7.02405 21.3189 6.84329 21.5877 6.61566 21.8138C5.66338 22.7661 2.21423 22.7858 2.21423 22.7858C2.21423 22.7858 2.21423 19.3178 3.16823 18.3664Z" fill="white"/>
<path id="color-2" d="M11.0917 4.22079C9.88363 4.01052 8.64266 4.09422 7.47373 4.46482C6.30481 4.83541 5.24229 5.48201 4.37602 6.34993C3.91762 6.81258 3.51908 7.33092 3.18973 7.89279C3.09329 8.05655 3.05401 8.24771 3.07806 8.43623C3.10211 8.62474 3.18813 8.79992 3.32259 8.93422L5.02745 10.6399C6.61164 8.12578 8.67163 5.94524 11.0917 4.22079Z" fill="white"/>
<path id="color-3" d="M20.7791 13.9082C20.9894 15.1163 20.9057 16.3573 20.5351 17.5262C20.1645 18.6951 19.5179 19.7576 18.65 20.6239C18.1873 21.0823 17.669 21.4809 17.1071 21.8102C16.9434 21.9066 16.7522 21.9459 16.5637 21.9219C16.3752 21.8978 16.2 21.8118 16.0657 21.6773L14.36 19.9725C16.8741 18.3883 19.0547 16.3283 20.7791 13.9082Z" fill="white"/>
</g>
</svg>
