<svg width="25" height="25" viewBox="0 0 25 25" fill="none" xmlns="http://www.w3.org/2000/svg">
<g id="Thumb up">
<path id="Vector" d="M5.64293 11.6428L3.0715 11.6428C2.84417 11.6428 2.62615 11.7331 2.46541 11.8939C2.30466 12.0546 2.21436 12.2726 2.21436 12.5L2.21436 21.9285C2.21436 22.1559 2.30466 22.3739 2.46541 22.5346C2.62615 22.6954 2.84417 22.7857 3.0715 22.7857H5.64293L5.64293 11.6428Z" fill="white"/>
<path id="Vector_2" d="M21.5335 11.1286C21.2117 10.7524 20.8122 10.4503 20.3625 10.2432C19.9129 10.036 19.4237 9.92873 18.9286 9.92864L13.3572 9.92864L13.3572 5.64293C13.3572 3.75207 12.6766 2.21436 10.7857 2.21436C10.5977 2.21432 10.4148 2.27614 10.2653 2.3903C10.1158 2.50446 10.0081 2.66461 9.95861 2.84607L7.35718 11.6429L7.35718 22.7858L18.008 22.7858C18.8281 22.7896 19.6221 22.4978 20.2446 21.9638C20.867 21.4299 21.2762 20.6895 21.3972 19.8784L22.3195 13.8784C22.3941 13.3905 22.3625 12.8922 22.2268 12.4176C22.0912 11.9431 21.8547 11.5034 21.5335 11.1286Z" fill="white"/>
</g>
</svg>
