<svg width="31" height="31" viewBox="0 0 31 31" fill="none" xmlns="http://www.w3.org/2000/svg">
<g id="Translation">
<path id="Vector" d="M21.0357 15.4336C20.9176 15.8956 20.5773 17.0364 20.0149 18.8558H22.0742C21.5435 17.1515 21.2453 16.1876 21.1796 15.9639C21.1154 15.7414 21.0667 15.5642 21.0357 15.4336Z" fill="rgba(239, 176, 52, 1)"/>
<path id="Vector_2" d="M26.5714 11.0715L15.4999 11.0715C14.9127 11.0715 14.3495 11.3048 13.9342 11.7201C13.5189 12.1353 13.2856 12.6986 13.2856 13.2858L13.2856 23.2501C13.2856 23.8374 13.5189 24.4006 13.9342 24.8158C14.3495 25.2311 14.9127 25.4644 15.4999 25.4644L22.1428 25.4644L26.5714 28.7858V25.4644C27.1586 25.4644 27.7218 25.2311 28.1371 24.8158C28.5524 24.4006 28.7856 23.8374 28.7856 23.2501L28.7856 13.2858C28.7856 12.6986 28.5524 12.1353 28.1371 11.7201C27.7218 11.3048 27.1586 11.0715 26.5714 11.0715ZM23.0495 22.143L22.4749 20.2608L19.5964 20.2608L19.0218 22.143L17.216 22.143L20.006 14.207H22.0542L24.8553 22.143H23.0495Z" fill="rgba(239, 176, 52, 1)"/>
<path id="Vector_3" d="M15.5001 2.21436L4.42864 2.21436C3.84138 2.21436 3.27816 2.44765 2.8629 2.8629C2.44765 3.27816 2.21436 3.84138 2.21436 4.42864L2.21436 14.3929C2.21436 14.9802 2.44765 15.5434 2.8629 15.9587C3.27816 16.3739 3.84138 16.6072 4.42864 16.6072L4.42864 19.9286L8.85721 16.6072L12.1786 16.6072L12.1786 13.2858C12.1832 13.1399 12.198 12.9945 12.2229 12.8507C11.4447 12.5442 10.7069 12.1434 10.0264 11.6572C8.95408 12.398 7.76241 12.9489 6.50343 13.2858C6.3136 12.718 6.02583 12.1878 5.65314 11.7192C6.76022 11.5189 7.82365 11.1262 8.79521 10.5589C8.34698 10.07 7.96336 9.52568 7.65375 8.93914C7.3979 8.4573 7.19307 7.95007 7.04261 7.42568C6.52114 7.42568 6.22 7.44339 5.77714 7.47882L5.77714 5.87678C6.20328 5.92264 6.63175 5.94334 7.06032 5.93878L9.01775 5.93878V5.40736C9.0188 5.22151 9.00099 5.03604 8.96461 4.85378H10.7394C10.7037 5.03128 10.6859 5.21191 10.6862 5.39296V5.93325L12.7898 5.93325C13.2184 5.93801 13.6468 5.91731 14.073 5.87125V7.47882C13.6832 7.44339 13.3378 7.42568 12.8164 7.42568C12.6934 8.01858 12.4936 8.59289 12.2218 9.134C11.9596 9.65536 11.629 10.1394 11.2387 10.5733C11.7502 10.8749 12.2948 11.1164 12.8617 11.2929C13.1684 10.8821 13.5664 10.5483 14.0243 10.3177C14.4822 10.0871 14.9874 9.96616 15.5001 9.96435H17.7144L17.7144 4.42864C17.7144 3.84138 17.4811 3.27816 17.0658 2.8629C16.6505 2.44765 16.0873 2.21436 15.5001 2.21436Z" fill="rgba(239, 176, 52, 1)"/>
<path id="Vector_4" d="M9.98191 9.56786C10.5204 8.95493 10.9006 8.21937 11.0891 7.42554L8.74634 7.42554C8.9743 8.231 9.39888 8.96718 9.98191 9.56786Z" fill="rgba(239, 176, 52, 1)"/>
</g>
</svg>
