<svg width="25" height="24" viewBox="0 0 25 24" fill="none" xmlns="http://www.w3.org/2000/svg">
<g id="World 2 1">
<path id="Vector" d="M12.5 21.4287C15.8429 19.8001 17.6429 16.2001 17.6429 12.0001C17.6429 7.8001 15.8429 4.2001 12.5 2.57153" stroke="#DEE1E6" strokeWidth="2.05714" strokeMiterlimit="10"/>
<path id="Vector_2" d="M12.5 21.4287C9.15715 19.8001 7.35715 16.2001 7.35715 12.0001C7.35715 7.8001 9.15715 4.2001 12.5 2.57153" stroke="#DEE1E6" strokeWidth="2.05714" strokeMiterlimit="10"/>
<path id="Vector_3" d="M12.5 21.4287L12.5 20.5715L12.5 3.42868V2.57153" stroke="#DEE1E6" strokeWidth="2.05714" strokeMiterlimit="10"/>
<path id="Vector_4" d="M3.07144 12L21.9286 12" stroke="#DEE1E6" strokeWidth="2.05714" strokeMiterlimit="10"/>
<path id="Vector_5" d="M12.5 21.4287C17.7073 21.4287 21.9286 17.2074 21.9286 12.0001C21.9286 6.79285 17.7073 2.57153 12.5 2.57153C7.29276 2.57153 3.07144 6.79285 3.07144 12.0001C3.07144 17.2074 7.29276 21.4287 12.5 21.4287Z" stroke="#DEE1E6" strokeWidth="2.05714" strokeMiterlimit="10" strokeLinecap="square"/>
</g>
</svg>
