<svg width="29" height="29" viewBox="0 0 29 29" fill="none" xmlns="http://www.w3.org/2000/svg">
<path d="M25.4267 19.2717L24.155 10.335C23.996 9.22347 23.4411 8.20665 22.5923 7.47147C21.7435 6.7363 20.6579 6.33217 19.535 6.33338L8.96501 6.33338C6.64335 6.33338 4.67168 8.03671 4.34501 10.335L3.07335 19.2717C2.98474 19.8889 3.09269 20.5183 3.38188 21.0707C3.67107 21.6232 4.12683 22.0705 4.68453 22.3493C5.24223 22.6282 5.87356 22.7244 6.489 22.6243C7.10444 22.5242 7.67275 22.2329 8.11335 21.7917L10.75 19.1667L17.75 19.1667L20.375 21.7917C20.935 22.3517 21.6933 22.6667 22.475 22.6667C24.295 22.6667 25.6833 21.0684 25.4267 19.2717ZM13.0833 13.3334L10.75 13.3334L10.75 15.6667H9.58335L9.58335 13.3334L7.25001 13.3334V12.1667L9.58335 12.1667L9.58335 9.83338H10.75L10.75 12.1667L13.0833 12.1667V13.3334ZM17.75 12.1667C17.1083 12.1667 16.5833 11.6417 16.5833 11C16.5833 10.3584 17.1083 9.83338 17.75 9.83338C18.3917 9.83338 18.9167 10.3584 18.9167 11C18.9167 11.6417 18.3917 12.1667 17.75 12.1667ZM20.0833 15.6667C19.4417 15.6667 18.9167 15.1417 18.9167 14.5C18.9167 13.8584 19.4417 13.3334 20.0833 13.3334C20.725 13.3334 21.25 13.8584 21.25 14.5C21.25 15.1417 20.725 15.6667 20.0833 15.6667Z" fill="rgba(239, 176, 52, 1)"/>
</svg>
