<svg width="29" height="29" viewBox="0 0 29 29" fill="none" xmlns="http://www.w3.org/2000/svg">
<g id="Rocket launch" clip-path="url(#clip0_1_16)">
<g id="Group">
<g id="Group_2">
<path id="Vector" d="M10.9717 7.90832C8.59167 10.58 6.95834 14.4183 6.80667 14.78L2.58334 12.9716L7.30834 8.24665C7.85667 7.69832 8.65 7.45332 9.42 7.60498L10.9717 7.90832ZM13.2817 20.3333C13.2817 20.3333 17.645 18.525 20.1533 16.0166C26.4533 9.71665 25.4033 4.79332 25.065 3.68498C23.9567 3.33498 19.0333 2.29665 12.7333 8.59665C10.225 11.105 8.41667 15.4683 8.41667 15.4683L13.2817 20.3333ZM20.8417 17.7783C18.17 20.1583 14.3317 21.7916 13.97 21.9433L15.7783 26.1666L20.5033 21.4416C21.0517 20.8933 21.2967 20.1 21.145 19.33L20.8417 17.7783ZM10.75 21.5C10.75 22.4683 10.3533 23.3433 9.72334 23.9733C8.34667 25.35 2.58334 26.1666 2.58334 26.1666C2.58334 26.1666 3.4 20.4033 4.77667 19.0266C5.40667 18.3966 6.28167 18 7.25 18C9.18667 18 10.75 19.5633 10.75 21.5ZM15.4167 11C15.4167 9.71665 16.4667 8.66665 17.75 8.66665C19.0333 8.66665 20.0833 9.71665 20.0833 11C20.0833 12.2833 19.0333 13.3333 17.75 13.3333C16.4667 13.3333 15.4167 12.2833 15.4167 11Z" fill="rgba(239, 176, 52, 1)"/>
</g>
</g>
</g>
<defs>
<clipPath id="clip0_1_16">
<rect width="28" height="28" fill="white" transform="translate(0.25 0.5)"/>
</clipPath>
</defs>
</svg>
