<svg width="29" height="29" viewBox="0 0 29 29" fill="none" xmlns="http://www.w3.org/2000/svg">
<g id="Casino">
<path id="Vector" d="M22.9167 4L6.58333 4C5.3 4 4.25 5.05 4.25 6.33333L4.25 22.6667C4.25 23.95 5.3 25 6.58333 25L22.9167 25C24.2 25 25.25 23.95 25.25 22.6667L25.25 6.33333C25.25 5.05 24.2 4 22.9167 4ZM9.5 21.5C8.53167 21.5 7.75 20.7183 7.75 19.75C7.75 18.7817 8.53167 18 9.5 18C10.4683 18 11.25 18.7817 11.25 19.75C11.25 20.7183 10.4683 21.5 9.5 21.5ZM9.5 11C8.53167 11 7.75 10.2183 7.75 9.25C7.75 8.28167 8.53167 7.5 9.5 7.5C10.4683 7.5 11.25 8.28167 11.25 9.25C11.25 10.2183 10.4683 11 9.5 11ZM14.75 16.25C13.7817 16.25 13 15.4683 13 14.5C13 13.5317 13.7817 12.75 14.75 12.75C15.7183 12.75 16.5 13.5317 16.5 14.5C16.5 15.4683 15.7183 16.25 14.75 16.25ZM20 21.5C19.0317 21.5 18.25 20.7183 18.25 19.75C18.25 18.7817 19.0317 18 20 18C20.9683 18 21.75 18.7817 21.75 19.75C21.75 20.7183 20.9683 21.5 20 21.5ZM20 11C19.0317 11 18.25 10.2183 18.25 9.25C18.25 8.28167 19.0317 7.5 20 7.5C20.9683 7.5 21.75 8.28167 21.75 9.25C21.75 10.2183 20.9683 11 20 11Z" fill="rgba(239, 176, 52, 1)"/>
</g>
</svg>
