<svg width="18" height="19" viewBox="0 0 18 19" fill="none" xmlns="http://www.w3.org/2000/svg"><path fill-rule="evenodd" clip-rule="evenodd" d="M0.392785 5.68379C0.392785 5.642 1.01249 5.642 1.01249 5.68379C1.01249 5.72557 0.923138 6.49956 2.21334 8.2121C3.50419 9.92527 4.3174 9.94199 5.25982 11.1859C6.20224 12.4298 6.20224 13.6126 6.1926 13.7611C6.18231 13.9083 5.75417 13.8884 5.50732 13.7611C5.26046 13.6338 4.68125 13.1472 4.18561 12.8656C3.20719 12.3096 2.15613 12.1727 1.08771 11.4951C-0.84792 10.2679 0.392785 5.72622 0.392785 5.68379ZM17.6092 5.68379C17.6092 5.72557 18.8499 10.2673 16.9143 11.4951C15.8471 12.1727 14.7954 12.3096 13.8164 12.8656C13.3207 13.1479 12.7415 13.6338 12.4947 13.7611C12.2478 13.8884 11.819 13.9083 11.8094 13.7611C11.7991 13.6126 11.7991 12.4298 12.7421 11.1859C13.6852 9.94199 14.4984 9.92527 15.7886 8.2121C17.0795 6.49892 16.9895 5.72557 16.9895 5.68379C16.9895 5.642 17.6092 5.642 17.6092 5.68379ZM8.3041 0.631027C8.30731 0.651598 8.3086 0.672169 8.3086 0.69274C8.3266 4.55109 8.33688 7.58274 8.33881 9.78898V11.4777C8.33624 13.2738 8.32531 14.1841 8.30603 14.2085C8.23981 14.2921 7.46132 14.2606 7.40668 14.2085C7.35203 14.1565 7.18425 11.8712 6.09397 10.5475C5.00369 9.22392 1.83765 7.10961 2.24971 4.00274C2.50428 2.08064 4.26184 0.850237 7.5211 0.31282L7.81296 0.267178C8.04889 0.231821 8.26874 0.395104 8.30345 0.631027H8.3041ZM10.1111 0.262032L10.1888 0.266531L10.4807 0.312173C13.7406 0.850234 15.4982 2.07999 15.7521 4.0021C16.1635 7.10896 12.9981 9.22328 11.9085 10.5469C10.8175 11.8705 10.6498 14.1558 10.5951 14.2079C10.5411 14.26 9.76198 14.2915 9.69577 14.2079C9.67649 14.1835 9.66556 13.2732 9.66299 11.4771V9.78834C9.66491 7.5821 9.6752 4.5498 9.6932 0.692094C9.6932 0.671523 9.69513 0.650952 9.6977 0.630381C9.73306 0.394457 9.95227 0.231175 10.1882 0.266531L10.1111 0.262032ZM0.848455 13.7144C0.617028 13.0047 1.05674 12.9398 2.49159 13.8513C3.92643 14.7629 5.57985 14.4826 5.89613 14.8657C6.21241 15.2476 5.57985 16.4465 4.07557 16.5526C2.5713 16.6586 1.08052 14.4247 0.849098 13.715L0.848455 13.7144ZM17.1542 13.7143C16.9228 14.424 15.4313 16.6585 13.9277 16.5518C12.4241 16.4451 11.7909 15.2469 12.1071 14.865C12.4234 14.4825 14.0768 14.7628 15.5117 13.8506C16.9465 12.9384 17.3862 13.004 17.1548 13.7137L17.1542 13.7143ZM8.09122 15.244C8.21079 15.244 8.30722 15.3404 8.30722 15.46V18.0461C8.30722 18.1657 8.21079 18.2621 8.09122 18.2621H8.08801C6.46866 18.2377 5.65931 17.9851 5.65931 17.5029C5.65931 17.3846 5.80974 17.2381 6.04438 17.0066L6.21216 16.8395C6.33109 16.7187 6.46416 16.5792 6.60494 16.4159C6.74573 16.2526 6.95016 15.9614 7.21951 15.541C7.33844 15.3552 7.54415 15.244 7.76465 15.244H8.09122ZM10.2386 15.2439C10.4591 15.2439 10.6649 15.3564 10.7844 15.5409C11.0538 15.9613 11.2582 16.2532 11.3983 16.4158C11.5385 16.5784 11.6716 16.7186 11.7911 16.8394L11.9589 17.0066C12.1929 17.2374 12.344 17.3846 12.344 17.5029C12.344 17.9843 11.5353 18.2376 9.91529 18.2621C9.79314 18.2621 9.69607 18.1656 9.69607 18.0461V15.4599C9.69607 15.3403 9.79314 15.2439 9.91207 15.2439H10.2386Z" fill="white"></path></svg>