<svg width="27" height="27" viewBox="0 0 27 27" fill="none" xmlns="http://www.w3.org/2000/svg">
<path d="M21.0833 3.75L5.91667 3.75C4.725 3.75 3.75 4.725 3.75 5.91667L3.75 21.0833C3.75 22.275 4.725 23.25 5.91667 23.25L21.0833 23.25C22.275 23.25 23.25 22.275 23.25 21.0833L23.25 5.91667C23.25 4.725 22.275 3.75 21.0833 3.75ZM8.625 20C7.72583 20 7 19.2742 7 18.375C7 17.4758 7.72583 16.75 8.625 16.75C9.52417 16.75 10.25 17.4758 10.25 18.375C10.25 19.2742 9.52417 20 8.625 20ZM8.625 10.25C7.72583 10.25 7 9.52417 7 8.625C7 7.72583 7.72583 7 8.625 7C9.52417 7 10.25 7.72583 10.25 8.625C10.25 9.52417 9.52417 10.25 8.625 10.25ZM13.5 15.125C12.6008 15.125 11.875 14.3992 11.875 13.5C11.875 12.6008 12.6008 11.875 13.5 11.875C14.3992 11.875 15.125 12.6008 15.125 13.5C15.125 14.3992 14.3992 15.125 13.5 15.125ZM18.375 20C17.4758 20 16.75 19.2742 16.75 18.375C16.75 17.4758 17.4758 16.75 18.375 16.75C19.2742 16.75 20 17.4758 20 18.375C20 19.2742 19.2742 20 18.375 20ZM18.375 10.25C17.4758 10.25 16.75 9.52417 16.75 8.625C16.75 7.72583 17.4758 7 18.375 7C19.2742 7 20 7.72583 20 8.625C20 9.52417 19.2742 10.25 18.375 10.25Z" fill="black"/>
</svg>
