<svg width="27" height="27" viewBox="0 0 27 27" fill="none" xmlns="http://www.w3.org/2000/svg">
<path d="M20 12.4167V14.5834L24.3334 14.5834V12.4167L20 12.4167ZM17.8334 19.5775C18.8734 20.3467 20.2275 21.365 21.3 22.1667C21.7334 21.5925 22.1667 21.0075 22.6 20.4334C21.5275 19.6317 20.1734 18.6134 19.1334 17.8334C18.7 18.4184 18.2667 19.0034 17.8334 19.5775ZM22.6 6.56671C22.1667 5.99254 21.7334 5.40754 21.3 4.83337C20.2275 5.63504 18.8734 6.65337 17.8334 7.43337C18.2667 8.00754 18.7 8.59254 19.1334 9.16671C20.1734 8.38671 21.5275 7.37921 22.6 6.56671ZM4.83335 10.25C3.64169 10.25 2.66669 11.225 2.66669 12.4167L2.66669 14.5834C2.66669 15.775 3.64169 16.75 4.83335 16.75H5.91669L5.91669 21.0834L8.08335 21.0834V16.75L9.16669 16.75L14.5834 20L14.5834 7.00004L9.16669 10.25L4.83335 10.25ZM17.2917 13.5C17.2917 12.0592 16.6634 10.7592 15.6667 9.87087L15.6667 17.1184C16.6634 16.2409 17.2917 14.9409 17.2917 13.5Z" fill="rgba(239, 176, 52, 1)"/>
</svg>
