<svg width="29" height="29" viewBox="0 0 29 29" fill="none" xmlns="http://www.w3.org/2000/svg">
<path d="M25.7118 17.1137C25.4736 13.8103 23.9872 10.7214 21.5544 8.4741C19.1216 6.22681 15.9247 4.9896 12.6128 5.01367H12.5538C12.349 4.42995 11.9682 3.92414 11.4638 3.56593C10.9595 3.20773 10.3564 3.01478 9.73782 3.01367V7.07467L5.03782 13.8597C4.81354 14.1833 4.71001 14.5755 4.74529 14.9677C4.78056 15.3599 4.95239 15.7272 5.23082 16.0057L5.69582 16.4707C5.99242 16.767 6.38067 16.9542 6.79727 17.0016C7.21386 17.049 7.63423 16.9538 7.98982 16.7317L10.7378 15.0137C11.5167 15.0123 12.2843 14.8282 12.979 14.4762C13.6738 14.1241 14.2762 13.614 14.7378 12.9867L14.7378 15.0137C14.7378 16.7137 13.6058 17.7227 11.7588 19.2287C10.1539 20.3731 8.81757 21.8534 7.84282 23.5667C7.76662 23.7192 7.73066 23.8886 7.73838 24.0589C7.74609 24.2292 7.79721 24.3947 7.88689 24.5397C7.97656 24.6847 8.10182 24.8043 8.25075 24.8873C8.39968 24.9702 8.56734 25.0138 8.73782 25.0137L23.3728 25.0137C23.5588 25.0149 23.7412 24.9636 23.8994 24.8658C24.0575 24.768 24.1849 24.6276 24.2668 24.4607C25.3673 22.175 25.8647 19.6458 25.7118 17.1137ZM10.7378 11.0137C10.54 11.0137 10.3467 10.955 10.1822 10.8451C10.0178 10.7353 9.88963 10.5791 9.81394 10.3964C9.73825 10.2136 9.71845 10.0126 9.75703 9.81858C9.79562 9.6246 9.89086 9.44642 10.0307 9.30657C10.1706 9.16671 10.3487 9.07147 10.5427 9.03289C10.7367 8.9943 10.9378 9.0141 11.1205 9.08979C11.3032 9.16548 11.4594 9.29365 11.5693 9.4581C11.6792 9.62255 11.7378 9.81589 11.7378 10.0137C11.7378 10.2789 11.6325 10.5332 11.4449 10.7208C11.2574 10.9083 11.003 11.0137 10.7378 11.0137Z" fill="#903489"/>
</svg>
