<svg width="29" height="29" viewBox="0 0 29 29" fill="none" xmlns="http://www.w3.org/2000/svg">
<path d="M10.2378 13.0137L12.2378 17.0137H16.2378L18.2378 13.0137L14.2378 10.0137L10.2378 13.0137Z" fill="rgba(239, 176, 52, 1)"/>
<path d="M14.2378 2.01367C11.8644 2.01367 9.54434 2.71746 7.57096 4.03604C5.59757 5.35461 4.0595 7.22876 3.15124 9.42147C2.24299 11.6142 2.00535 14.027 2.46837 16.3548C2.9314 18.6825 4.07429 20.8207 5.75252 22.499C7.43075 24.1772 9.56894 25.3201 11.8967 25.7831C14.2245 26.2461 16.6373 26.0085 18.83 25.1002C21.0227 24.192 22.8969 22.6539 24.2154 20.6805C25.534 18.7071 26.2378 16.387 26.2378 14.0137C26.2344 10.8321 24.969 7.78188 22.7193 5.53219C20.4696 3.2825 17.4193 2.01711 14.2378 2.01367ZM22.3058 19.8967L18.4698 19.8387L17.3378 23.5137C15.3243 24.1768 13.1513 24.1768 11.1378 23.5137L10.0058 19.8387L6.1698 19.8967C4.91534 18.1917 4.23843 16.1304 4.2378 14.0137V14.0067L7.3898 11.7887L6.1488 8.15767C7.39115 6.44172 9.14444 5.16271 11.1578 4.50367L14.2378 6.81367L17.3178 4.50367C19.3312 5.16271 21.0844 6.44172 22.3268 8.15767L21.0858 11.7887L24.2378 14.0067V14.0137C24.2372 16.1304 23.5603 18.1917 22.3058 19.8967Z" fill="rgba(239, 176, 52, 1)"/>
</svg>
