<svg xmlns="http://www.w3.org/2000/svg" version="1.0" width="749" height="500" viewBox="0 0 1000.000000 667.000000" preserveAspectRatio="xMidYMid meet"><g transform="translate(0.000000,667.000000) scale(0.100000,-0.100000)" fill="red" stroke="none"><path d="M5480 5695 c-8 -2 -67 -9 -130 -15 -124 -13 -312 -54 -346 -75 -11 -7 -25 -33 -31 -56 -16 -62 -76 -263 -117 -388 -59 -185 -114 -364 -135 -441 -12 -41 -37 -120 -56 -174 -39 -110 -41 -126 -21 -126 7 0 70 27 139 61 216 104 426 148 642 135 183 -11 316 -58 460 -163 137 -100 258 -299 285 -468 22 -135 7 -318 -37 -460 -41 -133 -152 -348 -239 -465 -238 -321 -606 -570 -954 -647 -140 -31 -344 -41 -458 -24 -276 43 -449 166 -571 408 -61 120 -76 192 -75 363 0 172 6 203 99 495 26 83 65 209 87 280 22 72 58 186 79 255 21 69 54 179 73 245 19 66 69 223 111 350 41 126 75 235 75 241 0 7 24 86 54 176 46 138 52 165 41 177 -12 12 -21 10 -62 -16 -26 -17 -77 -46 -113 -65 -93 -50 -317 -206 -440 -306 -330 -269 -672 -687 -845 -1032 -137 -272 -200 -470 -261 -810 -24 -132 -24 -459 0 -585 45 -240 89 -369 183 -531 162 -279 415 -492 738 -617 313 -122 714 -149 1105 -76 218 40 362 82 560 164 239 98 395 183 630 344 216 147 291 210 496 417 185 187 293 318 424 514 47 69 159 259 173 290 8 19 31 69 50 110 116 246 196 549 217 827 21 283 -32 606 -135 829 -128 277 -367 524 -650 670 -257 133 -477 185 -815 190 -118 1 -222 1 -230 -1z"/><path d="M5027 4160 c-91 -24 -258 -104 -332 -160 -111 -82 -246 -234 -297 -335 -44 -86 -80 -222 -85 -324 -6 -102 -6 -104 -44 -148 -43 -49 -51 -92 -23 -131 20 -29 66 -52 104 -52 24 0 48 -14 97 -55 80 -69 137 -98 230 -119 90 -20 162 -20 261 0 269 54 537 248 671 486 69 122 100 214 107 317 10 161 -24 276 -113 381 -43 49 -152 115 -234 141 -80 25 -246 25 -342 -1z m243 -305 c0 -22 3 -25 28 -19 l27 6 -31 -29 c-21 -18 -34 -41 -39 -68 -14 -80 -45 -103 -45 -33 l0 41 -25 -23 c-16 -15 -25 -34 -25 -55 0 -21 -9 -40 -25 -55 -31 -29 -38 -23 -23 17 13 33 5 67 -15 61 -15 -5 -66 -97 -67 -119 0 -9 -9 -27 -21 -40 l-20 -24 5 43 c4 23 19 64 35 89 24 39 43 54 103 83 67 33 74 40 88 80 8 25 19 51 23 58 13 20 27 14 27 -13z m205 -45 c-3 -5 -13 -10 -21 -10 -8 0 -14 -6 -14 -12 0 -10 -2 -10 -9 0 -4 8 -19 12 -32 10 -18 -2 -24 -9 -24 -29 0 -19 -4 -26 -17 -25 -33 2 -17 37 27 60 33 18 100 22 90 6z m-709 -144 c7 -18 -10 -52 -44 -88 l-26 -28 32 0 c94 0 18 -110 -141 -206 -45 -27 -91 -54 -102 -61 -38 -23 -46 -26 -55 -17 -7 7 40 164 75 247 6 15 4 17 -19 11 -42 -10 -33 22 14 48 21 13 44 34 50 47 9 20 16 23 44 18 19 -3 37 -2 41 1 7 8 94 39 113 41 7 0 15 -5 18 -13z m829 4 c3 -6 -1 -13 -10 -16 -19 -8 -30 0 -20 15 8 14 22 14 30 1z m-651 -26 c9 -3 16 -12 16 -20 0 -22 -68 -91 -96 -98 -29 -8 -47 -48 -39 -86 5 -24 3 -27 -17 -26 -21 1 -23 5 -22 59 2 69 35 126 91 156 43 23 45 23 67 15z m745 -97 c9 -12 -7 -15 -92 -20 -130 -8 -313 -62 -514 -153 -29 -13 -65 -27 -80 -30 -16 -4 -75 -31 -133 -59 -119 -59 -163 -76 -140 -54 28 26 320 163 515 241 180 72 413 111 444 75z m-745 -23 c13 -5 14 -9 5 -20 -13 -16 -29 -9 -29 12 0 16 2 16 24 8z m-234 -314 c0 -8 -83 -50 -99 -50 -5 0 90 59 97 60 1 0 2 -4 2 -10z m-380 -84 c0 -2 3 -11 6 -20 4 -11 1 -16 -10 -16 -9 0 -16 2 -16 4 0 2 -3 11 -6 20 -4 11 -1 16 10 16 9 0 16 -2 16 -4z"/><path d="M4642 3620 c-34 -15 -47 -29 -63 -66 -11 -25 -18 -48 -15 -51 8 -8 104 56 121 80 16 23 20 57 8 57 -5 0 -27 -9 -51 -20z"/><path d="M4625 3495 c-27 -13 -56 -24 -62 -25 -7 0 -15 -12 -19 -27 -3 -16 -10 -43 -16 -61 -5 -18 -8 -36 -5 -38 17 -17 187 115 187 145 0 15 -22 34 -33 30 -1 0 -24 -11 -52 -24z"/><path d="M4866 3588 c-9 -12 -16 -31 -16 -42 0 -18 2 -18 26 5 14 13 30 32 35 42 15 27 -26 22 -45 -5z"/></g></svg>