<svg width="241" height="68" viewBox="0 0 241 68" fill="none" xmlns="http://www.w3.org/2000/svg"><path d="M83.877 4.148h7.642l8.37 14.977h.363l8.37-14.977h7.641v29.405h-5.094V10.54h-.182l-8.551 14.793h-4.731L89.154 10.54h-.364v23.012h-5.095V4.148h.182z" fill="#000"/><path d="M116.445 33.735h-5.458V10.722l-8.551 14.794h-4.913l-8.37-14.611v22.83h-5.458V3.965h8.006v.182l8.369 14.794 8.37-14.976h8.005v29.77zm-4.912-.366h4.73V4.33h-7.459l-8.37 14.976h-.546v-.182L91.518 4.33H84.06v29.04h4.73V10.356h.547l8.369 14.794h4.549l8.551-14.794h.546V33.37h.182z" fill="#010101"/><path d="M126.637 33.735c-2.001 0-3.457-.548-4.549-1.461-1.091-1.096-1.455-2.557-1.455-4.384 0-2.191.728-3.652 2.001-4.748 1.274-1.096 3.275-1.826 6.186-2.01l5.095-.364v-.731c0-.73 0-1.461-.182-2.009-.182-.548-.364-.913-.728-1.278-.364-.366-.91-.548-1.456-.731-.545-.183-1.455-.183-2.365-.183-.91 0-2.001 0-3.093.183s-2.365.365-3.457.548l-.364-4.018a43.393 43.393 0 018.006-.73c3.275 0 5.64.547 7.096 1.826 1.455 1.096 2.365 2.922 2.365 5.479v14.61h-4.549l-.546-2.739h-.363c-2.548 1.827-4.913 2.74-7.642 2.74zm2.365-3.836c.728 0 1.638-.182 2.547-.547.91-.366 1.638-.731 2.366-1.279V23.69l-3.457.365c-1.638.183-2.729.365-3.275.913-.546.548-.91 1.279-.91 2.375 0 1.643.91 2.556 2.729 2.556z" fill="#000"/><path d="M126.635 33.916c-2.001 0-3.639-.547-4.548-1.643-1.092-1.096-1.638-2.557-1.638-4.566 0-2.192.728-3.836 2.002-4.931 1.273-1.096 3.457-1.827 6.186-2.01l4.912-.365v-.548c0-.73 0-1.46-.182-2.009 0-.365-.182-.73-.546-1.095-.363-.366-.727-.548-1.455-.548-1.092-.183-3.093-.183-5.458 0-1.092.182-2.366.365-3.457.548h-.182l-.364-4.384h.182a43.37 43.37 0 018.005-.73c3.275 0 5.641.548 7.278 1.826 1.638 1.279 2.365 3.105 2.365 5.662v14.793h-5.094l-.546-2.74h-.182c-2.183 1.827-4.549 2.74-7.278 2.74zm2.366-18.263c.909 0 1.819 0 2.365.182.728.183 1.092.366 1.637.731.364.365.728.73.728 1.278.182.548.182 1.279.182 2.01v.913l-5.276.365c-2.729.182-4.731.913-6.004 2.009-1.274 1.096-1.82 2.557-1.82 4.748 0 1.827.546 3.288 1.456 4.201.909.913 2.365 1.461 4.366 1.461 2.548 0 4.913-.913 7.096-2.74h.546l.546 2.74h4.185v-14.61c0-2.375-.728-4.201-2.184-5.297-1.455-1.096-3.821-1.644-6.914-1.644-2.365 0-4.912.183-7.823.73l.364 3.653 3.275-.548c1.273-.182 2.365-.182 3.275-.182zm0 14.428c-2.002 0-2.912-.913-2.912-2.922 0-1.096.364-2.01 1.092-2.374.728-.548 1.82-.73 3.457-.914l3.639-.365v4.566c-.728.548-1.456.913-2.365 1.279-1.274.547-2.184.73-2.911.73zm4.73-6.21l-3.093.366c-1.455.182-2.547.365-3.275.913-.546.365-.91 1.096-.91 2.192 0 1.643.91 2.556 2.548 2.556.727 0 1.637-.182 2.365-.547.91-.366 1.637-.731 2.183-1.279v-4.2h.182z" fill="#010101"/><path d="M144.465 12.002h4.548l.364 2.557h.182c2.002-1.096 3.821-1.826 5.277-2.192a10.963 10.963 0 014.002-.73c1.82 0 3.275.548 4.367 1.46 1.092 1.097 1.638 2.558 1.638 4.384v16.072h-5.459V19.49c0-1.278-.182-2.009-.728-2.557-.363-.548-1.091-.73-2.183-.73-.91 0-1.819.182-2.911.547-1.092.366-2.183.731-3.457 1.279v15.524h-5.458V12.002h-.182z" fill="#000"/><path d="M164.843 33.735h-5.823V19.489c0-1.096-.182-2.009-.545-2.557-.364-.548-1.092-.73-2.002-.73-.91 0-1.819.182-2.911.548-1.092.365-2.183.73-3.275 1.278v15.707h-5.822V11.818h4.73l.364 2.557c2.002-.913 3.821-1.643 5.095-2.191 1.455-.366 2.729-.73 4.002-.73 1.82 0 3.457.547 4.367 1.643 1.092 1.096 1.638 2.557 1.638 4.566v16.072h.182zm-5.459-.365h5.095V17.663c0-1.827-.546-3.288-1.456-4.2-.91-.914-2.365-1.462-4.185-1.462a10.98 10.98 0 00-4.002.73c-1.456.366-3.093 1.096-5.095 2.192h-.546l-.363-2.557h-4.185v21.186h5.094v-15.89h.182c1.274-.547 2.365-.912 3.457-1.278 1.092-.365 2.183-.548 2.911-.548 1.092 0 1.82.366 2.365.914.546.547.728 1.46.728 2.74v13.88z" fill="#010101"/><path d="M179.399 33.918c-7.096 0-10.735-3.652-10.735-11.14s3.639-11.141 10.735-11.141c1.091 0 2.001 0 3.093.182 1.091.183 2.001.183 2.911.548v4.383c-.91-.182-1.82-.365-2.729-.365-.91-.182-1.82-.182-2.729-.182-2.002 0-3.457.547-4.367 1.643-.91 1.096-1.274 2.74-1.274 4.932 0 2.374.364 4.018 1.274 5.113.91 1.096 2.365 1.462 4.367 1.462 1.091 0 2.001 0 2.911-.183.909 0 1.637-.183 2.547-.365v4.383c-.728.182-1.638.365-2.729.548-1.092.182-2.184.182-3.275.182z" fill="#000"/><path d="M179.397 34.1c-7.278 0-10.917-3.835-10.917-11.323 0-7.489 3.639-11.324 10.917-11.324.91 0 2.002 0 3.093.183 1.092.182 2.002.182 2.911.548h.182v4.748h-.182c-.909-.182-1.819-.365-2.729-.365-.91-.183-1.819-.183-2.729-.183-2.001 0-3.457.548-4.185 1.461-.909.914-1.273 2.557-1.273 4.932 0 2.191.364 4.018 1.273 4.93.91.914 2.184 1.462 4.185 1.462 1.092 0 2.001 0 2.911-.183.91 0 1.638-.182 2.547-.365h.182v4.749h-.182c-.727.182-1.637.365-2.729.547-1.092.183-2.183.183-3.275.183zm0-22.282c-7.096 0-10.553 3.653-10.553 10.959 0 7.305 3.457 10.958 10.553 10.958 1.092 0 2.183 0 3.275-.183.91-.182 1.82-.182 2.547-.365v-4.018c-.909.183-1.637.365-2.365.365-.91 0-1.819.183-2.911.183-2.001 0-3.639-.548-4.549-1.644-.909-1.096-1.273-2.74-1.273-5.114 0-2.374.546-4.018 1.455-5.114.91-1.095 2.366-1.643 4.549-1.643.91 0 1.819 0 2.729.182.91 0 1.82.183 2.547.366v-4.201c-.727-.183-1.637-.365-2.729-.365-1.273-.183-2.183-.366-3.275-.366z" fill="#010101"/><path d="M194.5 33.735c-2.001 0-3.457-.548-4.548-1.461-1.092-1.096-1.456-2.557-1.456-4.384 0-2.191.728-3.652 2.001-4.748 1.274-1.096 3.275-1.826 6.187-2.01l5.094-.364v-.731c0-.73 0-1.461-.182-2.009-.182-.548-.364-.913-.728-1.278-.364-.366-.909-.548-1.455-.731-.546-.183-1.456-.183-2.366-.183-.909 0-2.001 0-3.093.183-1.091.183-2.365.365-3.457.548l-.363-4.018a43.37 43.37 0 018.005-.73c3.275 0 5.64.547 7.096 1.826 1.456 1.096 2.365 2.922 2.365 5.479v14.61h-4.548l-.546-2.739h-.364c-2.729 1.827-5.095 2.74-7.642 2.74zm2.184-3.836c.727 0 1.637-.182 2.547-.547.91-.366 1.637-.731 2.365-1.279V23.69l-3.457.365c-1.637.183-2.729.365-3.275.913-.546.548-.91 1.279-.91 2.375 0 1.643.91 2.556 2.73 2.556z" fill="#000"/><path d="M194.499 33.916c-2.002 0-3.639-.547-4.549-1.643-1.092-1.096-1.638-2.557-1.638-4.566 0-2.192.728-3.836 2.002-4.931 1.273-1.096 3.457-1.827 6.186-2.01l4.912-.365v-.548c0-.73 0-1.46-.181-2.009-.182-.547-.364-.913-.728-1.095-.364-.366-.728-.548-1.456-.548-1.273-.183-3.093-.183-5.458 0-1.092.182-2.365.365-3.457.548h-.182l-.364-4.384h.182c2.911-.548 5.64-.73 8.006-.73 3.275 0 5.64.548 7.277 1.826 1.638 1.279 2.366 3.105 2.366 5.662v14.793h-4.913l-.546-2.74h-.182c-2.365 1.827-4.73 2.74-7.277 2.74zm2.365-18.263c.91 0 1.819 0 2.365.182.728.183 1.092.366 1.638.731.364.365.727.73.727 1.278.182.548.182 1.279.182 2.01v.913l-5.276.365c-2.729.182-4.731.913-6.004 2.009-1.274 1.096-1.82 2.557-1.82 4.748 0 1.827.546 3.288 1.456 4.201.91.913 2.365 1.461 4.367 1.461 2.547 0 4.912-.913 7.095-2.74h.546l.546 2.74h4.185v-14.61c0-2.375-.728-4.201-2.184-5.297-1.455-1.096-3.82-1.644-6.913-1.644-2.366 0-4.913.183-7.824.73l.364 3.653 3.275-.548c1.273-.182 2.183-.182 3.275-.182zm-.182 14.428c-2.001 0-2.911-.913-2.911-2.922 0-1.096.364-2.01 1.091-2.374.728-.548 1.82-.73 3.457-.914l3.639-.365v4.566c-.727.548-1.455.913-2.365 1.279-1.274.547-2.001.73-2.911.73zm4.73-6.21l-3.093.366c-1.455.182-2.547.365-3.275.913-.545.365-.909 1.096-.909 2.192 0 1.643.909 2.556 2.547 2.556.728 0 1.637-.182 2.365-.547.91-.366 1.638-.731 2.184-1.279v-4.2h.181z" fill="#010101"/><path d="M212.332 1.408h5.458v32.144h-5.458V1.408z" fill="#000"/><path d="M217.971 33.734h-5.823V1.224h5.823v32.51zm-5.459-.365h5.095V1.589h-5.095v31.78z" fill="#010101"/><path d="M227.797 33.735c-2.001 0-3.457-.548-4.548-1.461-1.092-1.096-1.456-2.557-1.456-4.384 0-2.191.728-3.652 2.001-4.748 1.274-1.096 3.275-1.826 6.186-2.01l5.095-.364v-.731c0-.73 0-1.461-.182-2.009-.182-.548-.364-.913-.728-1.278-.364-.366-.91-.548-1.455-.731-.546-.183-1.456-.183-2.366-.183-.909 0-2.001 0-3.093.183-1.091.183-2.365.365-3.457.548l-.364-4.018a43.4 43.4 0 018.006-.73c3.275 0 5.64.547 7.096 1.826 1.455 1.096 2.365 2.922 2.365 5.479v14.61h-4.549l-.545-2.739h-.364c-2.729 1.827-5.095 2.74-7.642 2.74zm2.183-3.836c.728 0 1.638-.182 2.548-.547.909-.366 1.637-.731 2.365-1.279V23.69l-3.457.365c-1.638.183-2.729.365-3.275.913-.546.548-.91 1.279-.91 2.375 0 1.643.91 2.556 2.729 2.556z" fill="#000"/><path d="M227.795 33.916c-2.001 0-3.638-.547-4.548-1.643-1.092-1.096-1.638-2.557-1.638-4.566 0-2.192.728-3.836 2.002-4.931 1.273-1.096 3.457-1.827 6.186-2.01l4.912-.365v-.548c0-.73 0-1.46-.182-2.009-.182-.547-.363-.913-.727-1.095-.364-.366-.728-.548-1.456-.548-1.274-.183-3.093-.183-5.458 0-1.092.182-2.366.365-3.457.548h-.182l-.364-4.384h.182a43.37 43.37 0 018.005-.73c3.275 0 5.641.548 7.278 1.826 1.638 1.279 2.366 3.105 2.366 5.662v14.793h-4.913l-.546-2.74h-.182c-2.183 1.827-4.73 2.74-7.278 2.74zm2.366-18.263c.909 0 1.819 0 2.365.182.728.183 1.092.366 1.638.731.363.365.727.73.727 1.278.182.548.182 1.279.182 2.01v.913l-5.276.365c-2.729.182-4.731.913-6.004 2.009-1.274 1.096-1.82 2.557-1.82 4.748 0 1.827.546 3.288 1.456 4.201.91.913 2.365 1.461 4.366 1.461 2.548 0 4.913-.913 7.096-2.74h.546l.546 2.74h4.185v-14.61c0-2.375-.728-4.201-2.184-5.297-1.455-1.096-3.82-1.644-6.914-1.644-2.365 0-4.912.183-7.823.73l.364 3.653 3.275-.548c1.273-.182 2.365-.182 3.275-.182zm-.182 14.428c-2.002 0-2.911-.913-2.911-2.922 0-1.096.364-2.01 1.091-2.374.728-.548 1.82-.73 3.457-.914l3.639-.365v4.566c-.728.548-1.455.913-2.365 1.279-1.092.547-2.001.73-2.911.73zm4.73-6.21l-3.093.366c-1.455.182-2.547.365-3.275.913-.546.365-.909 1.096-.909 2.192 0 1.643.909 2.556 2.547 2.556.728 0 1.637-.182 2.365-.547.91-.366 1.638-.731 2.183-1.279v-4.2h.182z" fill="#010101"/><path d="M55.675 47.432c-8.37-.548-13.282-5.662-13.464-14.063.182-8.401 5.094-13.515 13.464-14.063 5.458-.366 9.46-4.384 9.279-9.68-.182-4.931-4.185-9.132-9.28-9.132-5.094 0-9.642 3.836-9.279 9.132.364 6.575-2.547 10.41-8.369 12.42-5.822 2.19-11.28.913-16.011-2.923-2.365-1.826-3.275-4.566-3.275-7.488 0-1.826-.182-3.653-.728-5.296C16.557 2.32 11.826-.054 7.278.859 2.91 1.955-.182 6.156 0 10.54c.364 4.749 4.185 8.584 9.097 8.767 5.64.365 10.189 2.557 12.736 7.853 1.092 2.01 1.456 4.2 1.456 6.21 0 2.009-.546 4.2-1.456 6.21-2.547 5.296-7.096 7.487-12.736 7.853C4.185 47.797.364 51.45.182 56.38c-.364 4.383 2.91 8.584 7.096 9.497 4.548 1.096 9.279-1.278 10.916-5.844.546-1.644.546-3.47.728-5.297 0-2.922.91-5.662 3.275-7.488 4.73-3.835 10.189-5.114 16.011-2.922 5.64 2.192 8.551 6.027 8.37 12.42-.183 5.296 4.184 9.131 9.279 9.131 5.094 0 9.097-4.018 9.279-9.132 0-4.93-4.003-9.132-9.461-9.314z" fill="url(#paint0_linear)"/><path d="M32.568 47.431c-5.094 0-9.279 4.201-9.279 9.315s4.367 9.497 9.643 9.315c5.094 0 9.28-4.201 9.097-9.498-.182-5.114-4.366-9.314-9.46-9.132zM9.461 23.873C4.185 23.873 0 28.073 0 33.37s4.185 9.497 9.461 9.497c5.095 0 9.28-4.2 9.28-9.314-.183-5.48-4.185-9.68-9.28-9.68zm55.674 9.132c-.182-5.114-4.549-9.132-9.643-9.132-5.095.183-9.097 4.383-9.097 9.497s4.002 9.315 9.097 9.497c5.094.183 9.279-4.018 9.643-9.132v-.73zM32.567 19.307c5.094 0 9.279-4.018 9.279-9.315 0-5.114-4.003-9.314-9.097-9.314-5.277 0-9.644 4.2-9.644 9.314s4.367 9.315 9.462 9.315z" fill="#010101"/><path d="M98.431 59.486c-.727.914-1.82 1.644-3.093 2.192-1.273.548-2.729.73-4.366.73-1.638 0-3.275-.365-4.549-1.095a7.726 7.726 0 01-3.093-3.288c-.728-1.46-1.092-3.105-1.092-5.114v-1.643c0-3.105.728-5.48 2.184-7.123 1.455-1.644 3.457-2.557 6.186-2.557 2.183 0 4.002.548 5.458 1.644 1.274 1.095 2.183 2.74 2.365 4.93h-3.457c-.364-2.373-1.82-3.652-4.184-3.652-1.638 0-2.73.548-3.64 1.644-.909 1.096-1.273 2.74-1.273 4.931v1.644c0 2.191.546 3.835 1.456 5.114.91 1.278 2.183 1.826 3.82 1.826 1.82 0 3.094-.365 3.821-1.278v-4.018H90.79v-2.74h7.641v7.853zm12.917 2.557c-.182-.366-.364-.73-.364-1.461-1.092 1.095-2.365 1.643-4.003 1.643-1.455 0-2.729-.365-3.639-1.278-1.091-.73-1.455-1.827-1.455-3.105 0-1.644.546-2.922 1.819-3.653 1.274-.913 2.911-1.278 5.095-1.278h2.001v-1.096c0-.73-.182-1.461-.728-1.826-.364-.548-1.091-.73-2.001-.73-.728 0-1.456.182-1.82.547-.545.365-.727.913-.727 1.461h-3.457c0-.913.364-1.644.909-2.374.546-.73 1.274-1.279 2.184-1.644.909-.365 2.001-.548 3.093-.548 1.819 0 3.093.365 4.184 1.279 1.092.913 1.638 2.191 1.638 3.835v6.758c0 1.278.182 2.374.546 3.287v.183h-3.275zm-3.821-2.375c.728 0 1.274-.182 1.819-.547.546-.366 1.092-.731 1.274-1.279V54.92h-1.819c-1.274 0-2.184.182-2.912.73-.545.366-.909 1.096-.909 1.827 0 .73.182 1.096.728 1.644.545.365 1.091.547 1.819.547zm13.646-12.784l.182 1.644c1.092-1.279 2.548-1.827 4.367-1.827 2.001 0 3.457.73 4.185 2.374 1.091-1.46 2.547-2.374 4.548-2.374 1.638 0 2.911.548 3.639 1.461.728.913 1.274 2.192 1.274 4.018v9.863h-3.457V52.18c0-.913-.182-1.644-.546-2.191-.364-.366-1.092-.73-2.001-.73-.728 0-1.456.182-1.82.547-.546.365-.909.913-1.091 1.644v10.41h-3.457v-9.862c0-1.827-.91-2.74-2.73-2.74-1.273 0-2.365.548-2.911 1.644V61.86h-3.457V46.701h3.275v.183zm21.835-3.835c0-.548.182-.913.546-1.278.364-.366.727-.548 1.455-.548.546 0 1.092.182 1.456.548.364.365.546.73.546 1.278s-.182.913-.546 1.279c-.364.365-.728.547-1.456.547-.546 0-1.091-.182-1.455-.547-.364-.366-.546-.731-.546-1.279zm3.639 18.994h-3.457V46.884h3.457v15.16zm7.097-15.159l.182 1.826c1.091-1.278 2.547-2.009 4.366-2.009 3.093 0 4.731 1.827 4.731 5.48v10.044h-3.457v-9.862c0-.913-.182-1.644-.546-2.192-.364-.548-1.092-.73-2.001-.73-1.274 0-2.366.548-3.093 1.826v10.776h-3.457v-15.16h3.275zm12.369 7.489c0-2.374.546-4.2 1.638-5.662 1.091-1.46 2.547-2.191 4.366-2.191 1.638 0 3.093.547 4.003 1.826l.182-1.461h3.093v14.61c0 2.01-.546 3.47-1.819 4.75-1.274 1.095-2.911 1.643-4.913 1.643-1.091 0-2.183-.183-3.275-.73-1.091-.548-1.819-1.096-2.365-1.827l1.637-2.009c1.092 1.279 2.366 1.826 3.821 1.826a4.455 4.455 0 002.729-.913c.728-.548.91-1.46.91-2.74V60.4c-.91 1.096-2.183 1.644-3.821 1.644-1.819 0-3.275-.73-4.366-2.192-1.274-1.096-1.82-2.922-1.82-5.48zm3.457.365c0 1.461.364 2.74.91 3.653.546.913 1.455 1.278 2.547 1.278 1.274 0 2.365-.547 3.093-1.826v-6.575c-.728-1.096-1.637-1.644-3.093-1.644-1.092 0-2.001.366-2.547 1.279-.546.73-.91 2.009-.91 3.835z" fill="#000"/><defs><linearGradient id="paint0_linear" x1="2.768" y1="3.49" x2="62.511" y2="63.008" gradientUnits="userSpaceOnUse"><stop offset=".018" stop-color="#FFCE00"/><stop offset=".437" stop-color="#FF1C03"/><stop offset="1" stop-color="#DE0021"/></linearGradient></defs></svg>