<svg width="27" height="27" viewBox="0 0 27 27" fill="none" xmlns="http://www.w3.org/2000/svg">
<path d="M23.25 6.99996L21.0834 6.99996L21.0834 16.75L7.00002 16.75L7.00002 18.9166C7.00002 19.5125 7.48752 20 8.08335 20L20 20L24.3334 24.3333L24.3334 8.08329C24.3334 7.48746 23.8459 6.99996 23.25 6.99996ZM18.9167 13.5L18.9167 3.74996C18.9167 3.15413 18.4292 2.66663 17.8334 2.66663L3.75002 2.66663C3.15419 2.66663 2.66669 3.15413 2.66669 3.74996L2.66669 18.9166L7.00002 14.5833L17.8334 14.5833C18.4292 14.5833 18.9167 14.0958 18.9167 13.5Z" fill="#aaaaaa"/>
</svg>
