<svg width="29" height="29" viewBox="0 0 29 29" fill="none" xmlns="http://www.w3.org/2000/svg">
<path d="M25.2378 12.0137C25.7908 12.0137 26.2378 11.5667 26.2378 11.0137V6.01367C26.2378 5.46067 25.7908 5.01367 25.2378 5.01367L3.23779 5.01367C2.68479 5.01367 2.23779 5.46067 2.23779 6.01367L2.23779 11.0137C2.23779 11.5667 2.68479 12.0137 3.23779 12.0137C4.34079 12.0137 5.23779 12.9107 5.23779 14.0137C5.23779 15.1167 4.34079 16.0137 3.23779 16.0137C2.68479 16.0137 2.23779 16.4607 2.23779 17.0137L2.23779 22.0137C2.23779 22.5667 2.68479 23.0137 3.23779 23.0137L25.2378 23.0137C25.7908 23.0137 26.2378 22.5667 26.2378 22.0137V17.0137C26.2378 16.4607 25.7908 16.0137 25.2378 16.0137C24.1348 16.0137 23.2378 15.1167 23.2378 14.0137C23.2378 12.9107 24.1348 12.0137 25.2378 12.0137ZM19.2378 17.0137L9.23779 17.0137V15.0137L19.2378 15.0137V17.0137ZM19.2378 13.0137L9.23779 13.0137V11.0137L19.2378 11.0137L19.2378 13.0137Z" fill="#aaaaaa"/>
</svg>
