<svg width="27" height="27" viewBox="0 0 27 27" fill="none" xmlns="http://www.w3.org/2000/svg">
<g clip-path="url(#clip0_1_157)">
<path d="M9.6 20.2167C10.0117 20.7583 10.25 21.43 10.25 22.1667C10.25 23.965 8.79833 25.4167 7 25.4167C5.20167 25.4167 3.75 23.965 3.75 22.1667C3.75 20.3683 5.20167 18.9167 7 18.9167C7.47667 18.9167 7.92083 19.0142 8.3325 19.1983L9.86 17.2808C8.86333 16.165 8.4625 14.6917 8.67917 13.2833L6.48 12.5467C5.895 13.4458 4.89833 14.0417 3.75 14.0417C1.95167 14.0417 0.5 12.59 0.5 10.7917C0.5 8.99333 1.95167 7.54167 3.75 7.54167C5.54833 7.54167 7 8.99333 7 10.7917C7 10.8675 7 10.9433 6.98917 11.0192L9.18833 11.7558C9.88167 10.445 11.16 9.49167 12.6767 9.2425V6.9025C11.29 6.53417 10.25 5.26667 10.25 3.75C10.25 1.95167 11.7017 0.5 13.5 0.5C15.2983 0.5 16.75 1.95167 16.75 3.75C16.75 5.26667 15.71 6.53417 14.3125 6.9025V9.2425C15.8292 9.49167 17.1075 10.445 17.8008 11.7558L20 11.0192C20 10.9433 20 10.8675 20 10.7917C20 8.99333 21.4517 7.54167 23.25 7.54167C25.0483 7.54167 26.5 8.99333 26.5 10.7917C26.5 12.59 25.0483 14.0417 23.25 14.0417C22.1017 14.0417 21.105 13.4458 20.52 12.5575L18.3208 13.2942C18.5375 14.6917 18.1475 16.165 17.14 17.2917L18.6675 19.2092C19.0792 19.0142 19.5233 18.9167 20 18.9167C21.7983 18.9167 23.25 20.3683 23.25 22.1667C23.25 23.965 21.7983 25.4167 20 25.4167C18.2017 25.4167 16.75 23.965 16.75 22.1667C16.75 21.43 16.9883 20.7583 17.4 20.2167L15.8725 18.2992C14.41 19.1117 12.6117 19.1225 11.1383 18.2992L9.6 20.2167Z" fill="rgba(239, 176, 52, 1)"/>
</g>
<defs>
<clipPath id="clip0_1_157">
<rect width="26" height="26" fill="white" transform="translate(0.5 0.5)"/>
</clipPath>
</defs>
</svg>
