<svg width="27" height="27" viewBox="0 0 27 27" fill="none" xmlns="http://www.w3.org/2000/svg">
<path d="M19.0142 12.4168L24.2792 12.4168C24.1083 10.7182 23.5365 9.08449 22.6108 7.65011C21.6733 8.0984 20.8572 8.76539 20.2313 9.59492C19.6054 10.4244 19.188 11.3922 19.0142 12.4168ZM7.98583 12.4168C7.81203 11.3922 7.39459 10.4244 6.76868 9.59492C6.14276 8.76539 5.32668 8.0984 4.38916 7.65011C3.46347 9.08449 2.89167 10.7182 2.72083 12.4168L7.98583 12.4168ZM16.8258 12.4168C16.9954 11.0635 17.4821 9.76946 18.2464 8.63994C19.0107 7.51041 20.031 6.57737 21.2242 5.91678C19.4537 4.1058 17.1032 2.97462 14.5833 2.72095L14.5833 12.4168L16.8258 12.4168ZM10.1742 12.4168L12.4167 12.4168L12.4167 2.72095C9.89614 2.97227 7.54482 4.10382 5.77583 5.91678C6.96899 6.57737 7.98927 7.51041 8.75358 8.63994C9.51789 9.76946 10.0046 11.0635 10.1742 12.4168ZM16.8258 14.5834L14.5833 14.5834L14.5833 24.2793C17.1038 24.028 19.4552 22.8964 21.2242 21.0834C20.031 20.4229 19.0107 19.4898 18.2464 18.3603C17.4821 17.2308 16.9954 15.9367 16.8258 14.5834ZM4.38916 19.3501C5.32444 18.8987 6.13861 18.2309 6.76412 17.4019C7.38963 16.5729 7.80845 15.6067 7.98583 14.5834L2.72083 14.5834C2.89416 16.3276 3.48999 17.9526 4.38916 19.3501ZM19.0142 14.5834C19.188 15.608 19.6054 16.5758 20.2313 17.4053C20.8572 18.2348 21.6733 18.9018 22.6108 19.3501C23.5365 17.9157 24.1083 16.282 24.2792 14.5834L19.0142 14.5834ZM10.1742 14.5834C10.0046 15.9367 9.51789 17.2308 8.75358 18.3603C7.98927 19.4898 6.96899 20.4229 5.77583 21.0834C7.54624 22.8944 9.8968 24.0256 12.4167 24.2793L12.4167 14.5834L10.1742 14.5834Z" fill="rgba(239, 176, 52, 1)"/>
</svg>
