<svg xmlns="http://www.w3.org/2000/svg" viewBox="0 0 24 24"><g clip-path="url(#clip0_3205_7561)">
<path fill="white" d="M5.61287 12.7928C7.64364 12.8944 8.89156 13.1502 10.3367 13.1502C10.7105 13.1502 11.0524 13.1338 11.3874 13.1071C10.3694 14.3318 9.75882 15.9027 9.75882 17.6157C9.75882 19.7472 10.7044 21.6591 12.2021 22.9587C9.65289 23.0707 6.80911 22.9648 4.81193 22.6409C1.79849 22.1518 -0.379556 20.0116 0.0553641 17.0481L0.0855072 16.8647C0.555738 14.2698 2.83196 12.6533 5.61287 12.7928ZM10.2006 0.609863C13.2235 0.609863 15.6746 3.04197 15.6746 6.04335C15.6746 9.04473 13.2235 11.4768 10.2006 11.4768C7.17686 11.4768 4.7258 9.04387 4.7258 6.04335C4.7258 3.04283 7.17686 0.609863 10.2006 0.609863Z"></path>
<path fill="white" fill-rule="evenodd" clip-rule="evenodd" d="M18 23.3424C21.3137 23.3424 24 20.6561 24 17.3424C24 14.0287 21.3137 11.3424 18 11.3424C14.6863 11.3424 12 14.0287 12 17.3424C12 20.6561 14.6863 23.3424 18 23.3424ZM18.4143 14.4323V13.9928H17.6041V14.4323L17.4222 14.4561H17.4182C16.539 14.4884 15.8386 15.0724 15.8386 15.7881C15.8386 15.8181 15.8394 15.8481 15.8417 15.8737C15.8409 15.8948 15.8402 15.916 15.8402 15.9372C15.8402 16.5909 16.2778 17.1627 16.9397 17.4776C17.5121 17.769 17.8347 17.9391 17.8957 17.9828C18.1349 18.2035 18.2797 18.4917 18.2797 18.807C18.2797 18.8637 18.2749 18.9192 18.2669 18.9676C18.2669 19.2232 18.1499 19.3458 17.9151 19.3458C17.9062 19.3465 17.8974 19.3471 17.8886 19.3471C17.7956 19.3471 17.7155 19.3026 17.6794 19.2374L17.6834 19.2484C17.6233 19.0974 17.5905 18.9367 17.5905 18.7702C17.5905 18.7495 17.5913 18.7295 17.5921 18.7121V18.1352H15.8306V18.6082C15.833 18.996 15.9868 19.3548 16.2417 19.6433L16.2441 19.6452C16.5767 19.955 17.0583 20.1583 17.6041 20.1822V20.6926H18.3614V20.1538H18.5666C19.6314 19.9963 20.1638 19.4273 20.1638 18.4469V18.452C20.1678 18.4127 20.1694 18.3733 20.1694 18.3333C20.1694 17.8351 19.8929 17.3879 19.4538 17.0852L17.9094 16.2863L17.9062 16.2844C17.8141 16.2282 17.7307 16.1624 17.657 16.0875L17.6594 16.0927C17.5953 15.9856 17.56 15.8655 17.56 15.7384C17.56 15.7165 17.5616 15.6952 17.5632 15.6765C17.5632 15.4209 17.6746 15.2886 17.8918 15.2886C18.109 15.2886 18.2148 15.4306 18.2148 15.7094V16.1346H19.9763V15.6829C19.9619 15.3757 19.8176 15.095 19.5892 14.8769C19.2807 14.6349 18.8751 14.4723 18.4143 14.4323Z"></path></g><defs><clipPath id="clip0_3205_7561"><rect width="24" height="24"></rect></clipPath></defs></svg>