<svg viewBox="0 0 25 24" xmlns="http://www.w3.org/2000/svg">
<g clip-path="url(#clip0_3196_4399)">
<path fill="white" d="M24.1627 21.0329C24.0232 21.1724 23.8576 21.2832 23.6753 21.3587C23.493 21.4343 23.2976 21.4731 23.1002 21.4731C22.9029 21.4731 22.7075 21.4343 22.5251 21.3587C22.3428 21.2832 22.1772 21.1724 22.0377 21.0329L19.3856 18.3808C18.2946 19.0791 17.0051 19.4969 15.6135 19.4969C11.7401 19.4969 8.6001 16.3569 8.6001 12.4836C8.6001 8.61019 11.7401 5.47021 15.6135 5.47021C19.4868 5.47021 22.6268 8.61019 22.6268 12.4836C22.6268 13.8752 22.209 15.1647 21.5107 16.2558L24.1627 18.9078C24.3023 19.0473 24.413 19.2129 24.4886 19.3953C24.5641 19.5776 24.603 19.773 24.603 19.9703C24.603 20.1677 24.5641 20.3631 24.4886 20.5454C24.413 20.7277 24.3023 20.8933 24.1627 21.0329ZM15.6135 7.47403C12.8472 7.47403 10.6039 9.7163 10.6039 12.4836C10.6039 15.2508 12.8472 17.4931 15.6135 17.4931C18.3807 17.4931 20.623 15.2508 20.623 12.4836C20.623 9.7163 18.3807 7.47403 15.6135 7.47403Z"></path>
<path fill="white" fill-rule="evenodd" clip-rule="evenodd" d="M12.1572 16.9289C12.1988 16.3113 12.2287 15.8679 11.548 15.8679H9.46919C10.2583 17.2974 11.5318 18.4222 13.0684 19.0209H17.8995L18.027 19.0156C18.288 18.994 17.7493 18.9071 16.9057 18.771C15.1674 18.4906 12.1346 18.0013 12.1346 17.4444C12.1346 17.2638 12.1463 17.0904 12.1572 16.9289ZM9.40822 19.0209H2.15853C1.29978 19.0209 0.603027 18.3151 0.603027 17.4444C0.603027 16.6171 1.23153 15.9391 2.03028 15.8731L2.15778 15.8679H7.25701C7.74417 17.0696 8.48304 18.1424 9.40822 19.0209ZM8.60082 12.5851C9.15168 12.3426 9.53717 11.7862 9.53717 11.1384C9.53717 10.689 9.35158 10.2835 9.05392 9.99635C8.76065 10.7694 8.6001 11.6077 8.6001 12.4836C8.6001 12.5175 8.60034 12.5513 8.60082 12.5851ZM7.08419 9.56185C6.7704 10.4781 6.6001 11.461 6.6001 12.4836C6.6001 12.5609 6.60107 12.638 6.60301 12.7149H2.15853C1.29978 12.7149 0.603027 12.0091 0.603027 11.1384C0.603027 10.3111 1.23153 9.6331 2.03028 9.5671L2.15778 9.56185H7.08419ZM9.70139 5.67986H2.15853C1.29978 5.67986 0.603027 4.97411 0.603027 4.10336C0.603027 3.27611 1.23153 2.59811 2.03028 2.53211L2.15778 2.52686H17.8988C18.7575 2.52686 19.4543 3.23261 19.4543 4.10336C19.4543 4.17696 19.4493 4.24938 19.4397 4.32029C18.2782 3.77497 16.9814 3.47021 15.6135 3.47021C13.3514 3.47021 11.284 4.3035 9.70139 5.67986ZM13.9047 5.67986C14.4516 5.54292 15.024 5.47021 15.6135 5.47021C16.2029 5.47021 16.7753 5.54292 17.3222 5.67986H13.9047Z"></path>
</g><defs><clipPath id="clip0_3196_4399"><rect width="24" height="24" transform="translate(0.603027)"></rect></clipPath></defs></svg>