<svg xmlns="http://www.w3.org/2000/svg" version="1.1" width="1024" height="1024" viewBox="0 0 1024 1024" style="margin-top: -2px;"><title></title><g id="icomoon-ignore"></g>
<path fill="white" d="M357.776 178.512c-77.118 0.807-123.488-30.712-173.478-1.85s-70.736 86.512-46.344 128.765l219.824-126.914z"></path>
<path fill="white" d="M377.173 167.313c39.256-66.384 35.147-122.299 85.136-151.16 49.994-28.862 110.288-18.005 134.686 24.247l-219.824 126.914z"></path>
<path fill="white" d="M45.215 409.818c-21.128 12.202-28.367 39.216-16.169 60.341l66.256 114.757 344.277-198.768-88.272-152.896 76.507-44.173 88.273 152.896 344.277-198.768-66.256-114.76c-12.202-21.128-39.211-28.367-60.336-16.169l-688.559 397.537z"></path>
<path fill="white" d="M514.994 582.288h-353.367v397.539c0 24.398 19.776 44.173 44.173 44.173h309.2v-441.712zM603.34 582.288v441.712h265.026c24.398 0 44.173-19.776 44.173-44.173v-397.539h-309.2z"></path>
<path fill="white" d="M713.767 516.032c0 12.195 9.89 22.086 22.086 22.086s22.086-9.89 22.086-22.086v-44.173h44.173c12.195 0 22.086-9.89 22.086-22.086s-9.89-22.086-22.086-22.086h-44.173v-44.173c0-12.198-9.89-22.086-22.086-22.086s-22.086 9.888-22.086 22.086v44.173h-44.173c-12.195 0-22.086 9.89-22.086 22.086s9.89 22.086 22.086 22.086h44.173v44.173z"></path>
<path fill="white" d="M890.448 339.347c0 12.198 9.89 22.086 22.086 22.086s22.086-9.888 22.086-22.086v-44.173h44.173c12.195 0 22.086-9.888 22.086-22.086s-9.89-22.086-22.086-22.086h-44.173v-44.173c0-12.198-9.89-22.086-22.086-22.086s-22.086 9.888-22.086 22.086v44.173h-44.173c-12.195 0-22.086 9.888-22.086 22.086s9.89 22.086 22.086 22.086h44.173v44.173z"></path></svg>